<svg width="40" height="40" viewBox="0 0 40 40" fill="none" xmlns="http://www.w3.org/2000/svg">
<path d="M10.625 17.5C12.0056 17.5 13.125 16.3806 13.125 15V0H8.125V15C8.125 16.3806 9.24437 17.5 10.625 17.5Z" fill="#3D110F"/>
<path d="M33.125 15C33.125 16.3806 34.2444 17.5 35.625 17.5H38.125C38.945 17.5 39.375 17.0706 39.375 16.25V2.5C39.375 1.11813 38.2569 0 36.875 0H33.125V15Z" fill="#3D110F"/>
<path d="M16.875 17.5C18.2556 17.5 19.375 16.3806 19.375 15V0H14.375V15C14.375 16.3806 15.4944 17.5 16.875 17.5Z" fill="#3D110F"/>
<path d="M4.375 17.5C5.75563 17.5 6.875 16.3806 6.875 15V0H3.125C1.74313 0 0.625 1.11813 0.625 2.5V16.25C0.625 17.0706 1.1325 17.5 1.875 17.5H4.375Z" fill="#3D110F"/>
<path d="M23.125 17.5C24.5056 17.5 25.625 16.3806 25.625 15V0H20.625V15C20.625 16.3806 21.7444 17.5 23.125 17.5Z" fill="#3D110F"/>
<path d="M29.375 17.5C30.7556 17.5 31.875 16.3806 31.875 15V0H26.875V15C26.875 16.3806 27.9944 17.5 29.375 17.5Z" fill="#3D110F"/>
<path d="M7.5 40H15V31.25H14.375C14.0294 31.25 13.75 30.9706 13.75 30.625C13.75 30.2794 14.0294 30 14.375 30H15V23.75H7.5V40Z" fill="#3D110F"/>
<path d="M18.75 35H32.5V23.75H18.75V35ZM29.5581 25.1831C29.8025 24.9387 30.1975 24.9387 30.4419 25.1831L31.0669 25.8081C31.3113 26.0525 31.3113 26.4475 31.0669 26.6919C30.945 26.8138 30.785 26.875 30.625 26.875C30.465 26.875 30.305 26.8138 30.1831 26.6919L29.5581 26.0669C29.3137 25.8225 29.3137 25.4275 29.5581 25.1831ZM26.4331 25.1831C26.6775 24.9387 27.0725 24.9387 27.3169 25.1831L31.0669 28.9331C31.3113 29.1775 31.3113 29.5725 31.0669 29.8169C30.945 29.9388 30.785 30 30.625 30C30.465 30 30.305 29.9388 30.1831 29.8169L26.4331 26.0669C26.1887 25.8225 26.1887 25.4275 26.4331 25.1831Z" fill="#3D110F"/>
<path d="M35.625 18.75C34.32 18.75 33.1713 18.0825 32.5 17.0706C31.8287 18.0825 30.68 18.75 29.375 18.75C28.07 18.75 26.9213 18.0825 26.25 17.0706C25.5787 18.0825 24.43 18.75 23.125 18.75C21.82 18.75 20.6713 18.0825 20 17.0706C19.3287 18.0825 18.18 18.75 16.875 18.75C15.57 18.75 14.4213 18.0825 13.75 17.0706C13.0787 18.0825 11.93 18.75 10.625 18.75C9.32 18.75 8.17125 18.0825 7.5 17.0706C6.82875 18.0825 5.68 18.75 4.375 18.75H2.5V37.5C2.5 38.8819 3.61813 40 5 40H6.25V23.125C6.25 22.7794 6.52938 22.5 6.875 22.5H15.625C15.9706 22.5 16.25 22.7794 16.25 23.125V40H35C36.3819 40 37.5 38.8819 37.5 37.5V18.75H35.625ZM33.75 35.625C33.75 35.9706 33.4706 36.25 33.125 36.25H18.125C17.7794 36.25 17.5 35.9706 17.5 35.625V23.125C17.5 22.7794 17.7794 22.5 18.125 22.5H33.125C33.4706 22.5 33.75 22.7794 33.75 23.125V35.625Z" fill="#3D110F"/>
</svg>
