<svg width="60" height="60" viewBox="0 0 60 60" fill="none" xmlns="http://www.w3.org/2000/svg">
<path fill-rule="evenodd" clip-rule="evenodd" d="M41.642 38.2422C41.16 39.6066 39.244 40.7353 37.716 41.0654C36.67 41.2875 35.306 41.4632 30.71 39.5586C25.548 37.42 18.38 29.8019 18.38 24.7324C18.38 22.1516 19.868 19.1465 22.47 19.1465C23.722 19.1465 23.998 19.1709 24.41 20.1592C24.892 21.3235 26.068 24.1922 26.208 24.4863C26.786 25.6927 25.62 26.3989 24.774 27.4492C24.504 27.7653 24.198 28.1072 24.54 28.6953C24.88 29.2715 26.056 31.1881 27.784 32.7266C30.016 34.7152 31.826 35.35 32.474 35.6201C32.956 35.8202 33.532 35.7736 33.884 35.3975C34.33 34.9153 34.884 34.1154 35.448 33.3271C35.846 32.763 36.352 32.6925 36.882 32.8926C37.24 33.0166 41.79 35.1297 41.982 35.4678C42.124 35.7139 42.124 36.8778 41.642 38.2422ZM30.004 10H29.994C18.968 10 10 18.9707 10 30C10 34.3733 11.41 38.4307 13.808 41.7217L11.316 49.1533L19.002 46.6973C22.164 48.7899 25.938 50 30.004 50C41.03 50 50 41.0293 50 30C50 18.9707 41.03 10 30.004 10Z" fill="#3D110F"/>
</svg>
