<svg width="82" height="97" viewBox="0 0 82 97" fill="none" xmlns="http://www.w3.org/2000/svg">
<path d="M62.3057 33.2845C67.1154 37.088 88.1533 57.2926 65.2146 86.0309C47.366 103.062 28.0869 94.0497 20.6783 87.4147C12.6737 80.432 9.60815 72.5764 8.08809 63.188C7.76589 57.9839 8.37531 53.2019 9.1879 49.9676C22.6035 18.2776 51.0918 23.8246 62.3057 33.2845Z" fill="#F9B233"/>
<path d="M63.1496 29.8284C57.4612 24.4977 46.8778 23.3069 42.4781 23.5695L44.8199 18.5453C33.5623 9.29065 44.8199 1.08846 50.4827 2.19548C60.2075 -3.47587 65.5481 3.16767 67.0029 7.19835C79.7762 13.6531 68.855 27.4866 64.3843 25.2513L63.1496 29.8284Z" fill="#F9B233"/>
</svg>
