<svg width="96" height="50" viewBox="0 0 96 50" fill="none" xmlns="http://www.w3.org/2000/svg">
    <path fill-rule="evenodd" clip-rule="evenodd" d="M76.4843 28.4783C76.7046 27.9275 77.9683 27.132 78.5726 26.803C78.3202 26.4588 77.517 26.9866 76.0942 28.1191C75.811 28.7423 75.9342 29.3503 76.4843 29.3503C79.1463 29.6807 81.8083 25.4261 81.051 25.1048C80.4268 22.7182 74.4113 25.0743 71.4816 26.5506C66.6716 30.4243 70.0129 31.9205 72.4683 31.9205C76.2686 32.2693 76.2395 33.1674 75.75 33.5728C74.4745 35.4485 73.5363 35.9227 72.5719 36.41C72.3565 36.5189 72.1397 36.6285 71.9176 36.7545C70.9896 37.2808 70.1248 37.4971 68.6966 37.8544L68.6966 37.8544L68.6959 37.8546C68.566 37.8871 68.4314 37.9208 68.2917 37.9559C63.2982 38.3047 65.056 35.8676 66.6395 35.1103C69.4392 34.5825 69.1485 34.2612 68.8196 34.1465C65.8638 34.3484 64.6506 35.8523 64.4135 36.579C63.7021 40.7097 71.4357 38.9886 74.1895 36.579C77.2554 34.1373 76.7367 32.456 76.0942 31.9205C75.8563 31.3747 74.8741 31.1809 73.7903 30.9672L73.7903 30.9671L73.7902 30.9671L73.7902 30.9671C73.4524 30.9005 73.1048 30.8319 72.7667 30.7501C68.5258 30.7501 69.4315 29.3044 70.3571 28.4783C71.4203 27.6277 72.8168 27.034 73.9374 26.5575C74.1472 26.4683 74.3473 26.3833 74.5337 26.3014C78.3938 24.6061 80.0981 24.9457 80.4085 25.7245C80.2249 26.367 80.179 26.5047 79.1463 27.0589C77.8795 28.199 76.8921 28.4957 76.4843 28.4783ZM77.9759 35.248C76.0483 37.2124 75.1074 37.9559 73.7764 38.3919C73.5316 38.8433 73.6525 39.2823 76.0942 37.4281L77.1957 36.579C76.6908 37.7264 76.6449 40.1819 80.0642 36.9691C79.6253 37.7728 79.2594 39.0646 80.6839 38.7362C81.0281 38.7362 81.5502 38.5095 82.1066 38.2313C83.2388 37.2904 85.7049 35.1975 86.5127 34.353C85.1511 36.013 83.0797 39.2135 85.6866 38.7362C86.0603 38.7683 87.0044 38.2227 88.0503 37.4436C88.5633 36.9616 89.0346 36.5049 89.4904 36.0632L89.4906 36.063L89.4908 36.0629C90.1562 35.418 90.7887 34.8052 91.4696 34.1924C90.6052 35.3551 88.8764 37.7264 88.8764 37.91C88.8771 38.2994 89.035 38.6963 89.5419 38.3774C89.7156 38.2681 89.9243 38.0017 90.1855 37.6681C90.4047 37.3882 90.661 37.0609 90.9647 36.7397C92.4181 35.3169 95.2193 32.7834 94.7971 34.0318C93.489 35.271 91.1942 37.9467 92.4793 38.7362C93.2136 38.8738 94.1119 38.5678 93.0498 38.3774C92.4272 38.0589 93.0342 37.4313 93.845 36.5929C94.5953 35.8172 95.5201 34.861 95.8068 33.8023C95.7142 32.0506 92.9215 34.0905 91.722 35.4775L91.9744 35.0874C92.2601 34.5875 92.4974 34.2424 92.676 33.9828L92.6761 33.9828C92.8992 33.6584 93.0306 33.4674 93.0498 33.2745C93.0978 32.7905 92.6513 32.7353 92.2728 32.8155L88.1421 36.7397C85.2735 39.2869 84.0158 38.7362 86.1685 36.2577C88.959 33.045 87.9891 32.7925 87.1553 33.0679C85.9069 34.61 83.2082 37.0609 81.5329 38.1395C79.3906 39.0697 80.8453 37.1118 82.0463 35.4954C82.2759 35.1864 82.4962 34.8899 82.6804 34.6284C83.6166 33.0679 82.8563 33.2745 82.3591 33.5728C81.4263 32.3573 80.2882 33.1522 77.9759 35.248ZM88.8535 30.7731C89.2895 31.0944 91.0427 30.1627 90.1615 29.2814C88.9131 29.1162 88.3027 30.3673 88.8535 30.7731ZM81.487 33.5039C80.3148 34.295 76.8056 37.91 77.9759 37.91C78.5037 38.1395 79.8577 36.579 80.2249 36.0973C81.8296 34.6047 82.4322 33.4527 81.487 33.5039Z" fill="#3D110F"/>
    <path d="M78.5726 26.803L78.5836 26.8232L78.6066 26.8106L78.5911 26.7895L78.5726 26.803ZM76.4843 28.4783L76.463 28.4697L76.451 28.4998L76.4833 28.5012L76.4843 28.4783ZM76.0942 28.1191L76.0781 28.0989L76.0733 28.1096L76.0942 28.1191ZM76.4843 29.3503L76.4872 29.3273H76.4843V29.3503ZM81.051 25.1048L81.0288 25.1107L81.0317 25.1216L81.0421 25.126L81.051 25.1048ZM71.4816 26.5506L71.471 26.5296L71.4672 26.5327L71.4816 26.5506ZM72.4683 31.9205L72.4705 31.8976H72.4683V31.9205ZM75.75 33.5728L75.7347 33.5544L75.731 33.5599L75.75 33.5728ZM72.5719 36.41L72.5616 36.3895L72.5719 36.41ZM71.9176 36.7545L71.9063 36.7345L71.9176 36.7545ZM68.6966 37.8544L68.691 37.832L68.6881 37.8331L68.6966 37.8544ZM68.6966 37.8544L68.7022 37.8769L68.7051 37.8757L68.6966 37.8544ZM68.6959 37.8546L68.7014 37.8769L68.7015 37.8769L68.6959 37.8546ZM68.2917 37.9559L68.2934 37.9792L68.2974 37.9782L68.2917 37.9559ZM66.6395 35.1103L66.6351 35.087L66.6296 35.0896L66.6395 35.1103ZM68.8196 34.1465L68.8278 34.1229L68.818 34.1236L68.8196 34.1465ZM64.4135 36.579L64.3914 36.5718L64.3909 36.5751L64.4135 36.579ZM74.1895 36.579L74.1752 36.561L74.1744 36.5617L74.1895 36.579ZM76.0942 31.9205L76.0706 31.9308L76.0795 31.9381L76.0942 31.9205ZM73.7903 30.9672L73.7853 30.9896L73.7858 30.9897L73.7903 30.9672ZM73.7902 30.9671L73.7952 30.9447L73.794 30.9445L73.7902 30.9671ZM73.7902 30.9671L73.7858 30.9897L73.7864 30.9898L73.7902 30.9671ZM72.7667 30.7501L72.7722 30.7272H72.7667V30.7501ZM70.3571 28.4783L70.3427 28.4603L70.3418 28.4611L70.3571 28.4783ZM73.9374 26.5575L73.9464 26.5786L73.9374 26.5575ZM74.5337 26.3014L74.5429 26.3224L74.5337 26.3014ZM80.4085 25.7245L80.4305 25.7308L80.4327 25.7232L80.4298 25.716L80.4085 25.7245ZM79.1463 27.0589L79.1351 27.038L79.131 27.0418L79.1463 27.0589ZM73.7764 38.3919L73.7693 38.3701L73.7606 38.373L73.7562 38.381L73.7764 38.3919ZM77.9759 35.248L77.9605 35.231L77.9596 35.2319L77.9759 35.248ZM76.0942 37.4281L76.1081 37.4464L76.1082 37.4463L76.0942 37.4281ZM77.1957 36.579L77.2167 36.5883L77.1817 36.5608L77.1957 36.579ZM80.0642 36.9691L80.0844 36.9801L80.0485 36.9524L80.0642 36.9691ZM80.6839 38.7362V38.7126L80.6787 38.7138L80.6839 38.7362ZM82.1066 38.2313L82.1172 38.2524L82.1213 38.2489L82.1066 38.2313ZM86.5127 34.353L86.5305 34.3676L86.4961 34.3372L86.5127 34.353ZM85.6866 38.7362L85.6886 38.7125L85.6825 38.7136L85.6866 38.7362ZM88.0503 37.4436L88.0641 37.4621L88.066 37.4603L88.0503 37.4436ZM89.4904 36.0632L89.4745 36.0467L89.4745 36.0467L89.4904 36.0632ZM89.4906 36.063L89.4748 36.0464L89.4747 36.0465L89.4906 36.063ZM89.4908 36.0629L89.5066 36.0795L89.5067 36.0793L89.4908 36.0629ZM91.4696 34.1924L91.488 34.2061L91.4542 34.1753L91.4696 34.1924ZM88.8764 37.91H88.8535V37.9101L88.8764 37.91ZM89.5419 38.3774L89.5541 38.3969L89.5419 38.3774ZM90.1855 37.6681L90.2036 37.6823L90.1855 37.6681ZM90.9647 36.7397L90.9486 36.7232L90.948 36.7239L90.9647 36.7397ZM94.7971 34.0318L94.8149 34.0506L94.8188 34.0391L94.7971 34.0318ZM92.4793 38.7362L92.4664 38.7571L92.4751 38.7587L92.4793 38.7362ZM93.0498 38.3774L93.0388 38.3988L93.0457 38.4L93.0498 38.3774ZM93.845 36.5929L93.8285 36.577L93.845 36.5929ZM95.8068 33.8023L95.8301 33.8086L95.8297 33.8011L95.8068 33.8023ZM91.722 35.4775L91.7027 35.465L91.7394 35.4925L91.722 35.4775ZM91.9744 35.0874L91.9937 35.0999L91.9944 35.0988L91.9744 35.0874ZM92.676 33.9828L92.695 33.9958L92.6957 33.9946L92.676 33.9828ZM92.6761 33.9828L92.6571 33.9697L92.6564 33.971L92.6761 33.9828ZM93.0498 33.2745L93.0726 33.2767L93.0498 33.2745ZM92.2728 32.8155L92.2672 32.7891L92.257 32.7989L92.2728 32.8155ZM88.1421 36.7397L88.1573 36.7568L88.1579 36.7563L88.1421 36.7397ZM86.1685 36.2577L86.1858 36.2728L86.1685 36.2577ZM87.1553 33.0679L87.1467 33.042L87.1374 33.0535L87.1553 33.0679ZM81.5329 38.1395L81.5422 38.1608L81.5454 38.1588L81.5329 38.1395ZM82.0463 35.4954L82.0647 35.5091L82.0463 35.4954ZM82.6804 34.6284L82.6992 34.6417L82.7 34.6402L82.6804 34.6284ZM82.3591 33.5728L82.3409 33.5868L82.3533 33.603L82.3709 33.5925L82.3591 33.5728ZM88.8535 30.7731L88.8671 30.7546V30.7546L88.8535 30.7731ZM90.1615 29.2814L90.1777 29.2652L90.1722 29.2597L90.1645 29.2587L90.1615 29.2814ZM77.9759 37.91L77.9859 37.8871H77.9759V37.91ZM81.487 33.5039L81.4856 33.4772L81.4742 33.4849L81.487 33.5039ZM80.2249 36.0973L80.209 36.0802L80.2066 36.0834L80.2249 36.0973ZM78.5616 26.7829C78.2588 26.9477 77.7909 27.2294 77.3708 27.539C77.1608 27.6938 76.9624 27.8559 76.8024 28.0141C76.6429 28.1719 76.5199 28.3276 76.463 28.4697L76.5056 28.4868C76.5589 28.3535 76.6765 28.2032 76.8347 28.0467C76.9925 27.8906 77.1891 27.73 77.3981 27.5759C77.816 27.2678 78.2821 26.9873 78.5836 26.8232L78.5616 26.7829ZM76.1085 28.137C76.82 27.5707 77.3752 27.1568 77.7835 26.9273C77.9879 26.8125 78.1534 26.7451 78.2821 26.7269C78.4097 26.7089 78.4975 26.7394 78.5541 26.8166L78.5911 26.7895C78.5215 26.6945 78.4142 26.6619 78.2757 26.6815C78.1384 26.7008 77.9668 26.7717 77.761 26.8873C77.349 27.1188 76.7912 27.535 76.0799 28.1011L76.1085 28.137ZM76.4843 29.3273C76.3512 29.3273 76.2455 29.2906 76.1657 29.2275C76.0857 29.1644 76.0299 29.0734 75.9988 28.9622C75.9366 28.7392 75.9749 28.4371 76.1151 28.1286L76.0733 28.1096C75.9303 28.4242 75.8886 28.7378 75.9546 28.9746C75.9878 29.0933 76.0482 29.1933 76.1372 29.2636C76.2263 29.3339 76.3424 29.3732 76.4843 29.3732V29.3273ZM81.0421 25.126C81.1234 25.1605 81.1639 25.2491 81.1585 25.3922C81.1531 25.5346 81.102 25.7229 81.0102 25.9413C80.8266 26.3776 80.4831 26.9272 80.0324 27.4571C79.5818 27.9869 79.0251 28.4959 78.4158 28.8517C77.8065 29.2075 77.1461 29.4093 76.4871 29.3275L76.4815 29.3731C77.1536 29.4565 77.8241 29.2504 78.439 28.8913C79.0538 28.5323 79.6144 28.0195 80.0674 27.4868C80.5203 26.9542 80.8667 26.4006 81.0525 25.9591C81.1452 25.7386 81.1987 25.5444 81.2043 25.3939C81.21 25.2442 81.168 25.1295 81.06 25.0837L81.0421 25.126ZM71.4919 26.5711C72.956 25.8333 75.1905 24.876 77.1363 24.4014C78.1095 24.164 79.0082 24.0479 79.7015 24.139C80.3941 24.2301 80.8761 24.5267 81.0288 25.1107L81.0732 25.099C80.9139 24.4897 80.4098 24.1858 79.7074 24.0935C79.0057 24.0013 78.1004 24.119 77.1254 24.3568C75.175 24.8326 72.9369 25.7915 71.4712 26.5301L71.4919 26.5711ZM72.4683 31.8976C71.8566 31.8976 71.1899 31.8043 70.6093 31.6045C70.0283 31.4045 69.5364 31.0988 69.2698 30.6759C69.0043 30.2547 68.9599 29.7131 69.282 29.0337C69.6046 28.3532 70.2946 27.536 71.496 26.5685L71.4672 26.5327C70.2635 27.5021 69.5674 28.3245 69.2405 29.014C68.9131 29.7046 68.9555 30.2634 69.231 30.7004C69.5055 31.1358 70.0087 31.4463 70.5944 31.6479C71.1806 31.8497 71.8524 31.9435 72.4683 31.9435V31.8976ZM75.7646 33.5905C75.8895 33.487 75.9881 33.3497 76.001 33.1945C76.014 33.0379 75.9393 32.8699 75.732 32.7074C75.5252 32.5452 75.1844 32.3866 74.6591 32.2466C74.1334 32.1066 73.4213 31.9849 72.4704 31.8977L72.4662 31.9434C73.4155 32.0305 74.1249 32.1519 74.6473 32.291C75.17 32.4302 75.5039 32.5868 75.7037 32.7435C75.903 32.8997 75.9666 33.0541 75.9553 33.1907C75.9438 33.3288 75.8552 33.4558 75.7353 33.5551L75.7646 33.5905ZM72.5823 36.4305C73.0644 36.1868 73.542 35.9455 74.0586 35.5299C74.5753 35.1143 75.1302 34.525 75.7689 33.5857L75.731 33.5599C75.0942 34.4963 74.5423 35.082 74.0299 35.4942C73.5174 35.9064 73.0438 36.1459 72.5616 36.3895L72.5823 36.4305ZM71.9289 36.7744C72.1505 36.6487 72.3668 36.5394 72.5823 36.4305L72.5616 36.3895C72.3462 36.4984 72.1289 36.6082 71.9063 36.7345L71.9289 36.7744ZM68.7021 37.8767C70.1298 37.5195 70.9978 37.3026 71.9289 36.7744L71.9063 36.7345C70.9815 37.259 70.1198 37.4747 68.691 37.8322L68.7021 37.8767ZM68.7051 37.8757L68.7051 37.8757L68.6881 37.8331L68.688 37.8331L68.7051 37.8757ZM68.7015 37.8769L68.7022 37.8767L68.691 37.8322L68.6903 37.8323L68.7015 37.8769ZM68.2974 37.9782C68.437 37.943 68.5716 37.9094 68.7014 37.8769L68.6903 37.8323C68.5604 37.8648 68.4258 37.8985 68.2861 37.9337L68.2974 37.9782ZM66.6296 35.0896C66.2312 35.2802 65.8221 35.5761 65.5107 35.9078C65.2 36.2387 64.9831 36.6087 64.9763 36.9475C64.9729 37.1177 65.0226 37.2795 65.1392 37.423C65.2555 37.5662 65.4373 37.6899 65.6962 37.7864C66.2135 37.9794 67.0439 38.0661 68.2933 37.9788L68.2901 37.933C67.0428 38.0202 66.2203 37.933 65.7123 37.7434C65.4585 37.6488 65.2845 37.529 65.1748 37.394C65.0654 37.2594 65.019 37.1083 65.0222 36.9484C65.0286 36.6268 65.236 36.2674 65.5441 35.9392C65.8516 35.6118 66.256 35.3191 66.6494 35.131L66.6296 35.0896ZM68.812 34.1682C68.8522 34.1822 68.8911 34.1991 68.9232 34.2188C68.9556 34.2386 68.9791 34.2601 68.9913 34.2823C69.0026 34.3031 69.0047 34.3258 68.9918 34.3528C68.9782 34.3812 68.9474 34.4154 68.8898 34.4545C68.7749 34.5327 68.5619 34.6252 68.201 34.7312C67.8407 34.837 67.3347 34.9559 66.6352 35.0878L66.6437 35.1329C67.344 35.0008 67.8516 34.8816 68.214 34.7752C68.5757 34.6689 68.7945 34.5749 68.9157 34.4925C68.9762 34.4513 69.0146 34.4116 69.0332 34.3726C69.0525 34.3322 69.0499 34.2939 69.0315 34.2603C69.0139 34.228 68.9826 34.2014 68.9471 34.1796C68.9113 34.1577 68.8692 34.1395 68.8271 34.1248L68.812 34.1682ZM64.4353 36.5861C64.669 35.87 65.8728 34.3708 68.8211 34.1694L68.818 34.1236C65.8549 34.326 64.6323 35.8346 64.3917 36.5719L64.4353 36.5861ZM74.1744 36.5617C72.8018 37.7627 70.1848 38.794 67.9998 39.0088C66.9071 39.1162 65.9268 39.0189 65.265 38.6406C64.9346 38.4517 64.6839 38.193 64.5374 37.8547C64.3908 37.5162 64.3477 37.096 64.4361 36.5829L64.3909 36.5751C64.3014 37.0947 64.3443 37.5243 64.4953 37.8729C64.6463 38.2217 64.9046 38.4874 65.2422 38.6804C65.9164 39.0658 66.9083 39.1622 68.0043 39.0545C70.1967 38.839 72.8234 37.8049 74.2046 36.5963L74.1744 36.5617ZM76.0795 31.9381C76.394 32.2002 76.6816 32.7457 76.5101 33.53C76.3384 34.3152 75.7061 35.3418 74.1752 36.5611L74.2038 36.597C75.7388 35.3745 76.3801 34.3396 76.5549 33.5398C76.73 32.7392 76.4369 32.1762 76.1089 31.9029L76.0795 31.9381ZM73.7858 30.9897C74.3282 31.0967 74.843 31.1982 75.2519 31.341C75.6619 31.4841 75.9583 31.6663 76.0731 31.9297L76.1152 31.9113C75.9921 31.6289 75.6785 31.4413 75.267 31.2976C74.8544 31.1536 74.3361 31.0514 73.7947 30.9446L73.7858 30.9897ZM73.7853 30.9895L73.7853 30.9896L73.7953 30.9448L73.7952 30.9447L73.7853 30.9895ZM73.7853 30.9895L73.7853 30.9895L73.7952 30.9447L73.7952 30.9447L73.7853 30.9895ZM73.7864 30.9898L73.7865 30.9898L73.794 30.9445L73.794 30.9445L73.7864 30.9898ZM72.7613 30.7724C73.0999 30.8544 73.4481 30.923 73.7858 30.9897L73.7946 30.9446C73.4568 30.878 73.1096 30.8095 72.7721 30.7278L72.7613 30.7724ZM70.3418 28.4611C70.1096 28.6684 69.8775 28.9155 69.727 29.1701C69.5767 29.4243 69.5053 29.6905 69.6032 29.9326C69.7011 30.1746 69.9648 30.3841 70.4643 30.5333C70.9644 30.6827 71.7055 30.7731 72.7667 30.7731V30.7272C71.7074 30.7272 70.9714 30.6369 70.4775 30.4893C69.983 30.3417 69.7358 30.1381 69.6457 29.9154C69.5557 29.6928 69.6192 29.4427 69.7665 29.1934C69.9136 28.9446 70.1418 28.7012 70.3724 28.4954L70.3418 28.4611ZM73.9285 26.5364C72.8084 27.0126 71.4088 27.6075 70.3428 28.4603L70.3714 28.4962C71.4317 27.6479 72.8251 27.0554 73.9464 26.5786L73.9285 26.5364ZM74.5245 26.2804C74.3382 26.3622 74.1382 26.4472 73.9285 26.5364L73.9464 26.5786C74.1561 26.4895 74.3563 26.4043 74.5429 26.3224L74.5245 26.2804ZM80.4298 25.716C80.269 25.3124 79.7515 25.0325 78.8015 25.0622C77.8499 25.092 76.4557 25.4322 74.5245 26.2804L74.5429 26.3224C76.4717 25.4753 77.8597 25.1376 78.803 25.1081C79.7478 25.0785 80.2376 25.3577 80.3872 25.7329L80.4298 25.716ZM79.1572 27.0791C79.673 26.8022 79.9463 26.6276 80.113 26.44C80.2805 26.2515 80.339 26.0512 80.4305 25.7308L80.3864 25.7181C80.2944 26.0403 80.2381 26.2301 80.0786 26.4096C79.9182 26.5901 79.6522 26.7613 79.1355 27.0386L79.1572 27.0791ZM76.4833 28.5012C76.6924 28.5101 77.045 28.4388 77.503 28.2234C77.9614 28.0079 78.5268 27.6473 79.1617 27.0759L79.131 27.0418C78.499 27.6106 77.9373 27.9685 77.4834 28.1819C77.029 28.3956 76.6841 28.4638 76.4853 28.4553L76.4833 28.5012ZM73.7835 38.4137C75.1203 37.9759 76.0645 37.2286 77.9923 35.2641L77.9596 35.2319C76.0321 37.1961 75.0945 37.936 73.7693 38.3701L73.7835 38.4137ZM76.0803 37.4098C75.4702 37.8731 75.0056 38.1928 74.6556 38.4048C74.3051 38.6171 74.0715 38.7202 73.923 38.7522C73.8487 38.7682 73.7988 38.7656 73.7669 38.7529C73.7368 38.7409 73.7206 38.7191 73.7144 38.688C73.708 38.6555 73.7127 38.6127 73.7276 38.5627C73.7423 38.5131 73.7665 38.4584 73.7966 38.4029L73.7562 38.381C73.7251 38.4383 73.6995 38.4961 73.6836 38.5496C73.6678 38.6028 73.6608 38.6539 73.6694 38.697C73.6783 38.7415 73.7038 38.7772 73.7499 38.7955C73.7941 38.8132 73.8547 38.8138 73.9327 38.797C74.0891 38.7634 74.3282 38.6568 74.6794 38.444C75.0312 38.2309 75.4973 37.9102 76.1081 37.4464L76.0803 37.4098ZM77.1817 36.5608L76.0802 37.4099L76.1082 37.4463L77.2097 36.5972L77.1817 36.5608ZM80.0485 36.9524C79.1943 37.755 78.5584 38.2018 78.0934 38.4039C77.628 38.6061 77.3411 38.5607 77.1747 38.393C77.0056 38.2225 76.9512 37.9173 76.973 37.5773C76.9947 37.2388 77.0915 36.8729 77.2167 36.5883L77.1747 36.5698C77.0475 36.8589 76.9492 37.2301 76.9272 37.5744C76.9052 37.9171 76.9584 38.2401 77.1421 38.4253C77.3285 38.6132 77.6397 38.6511 78.1117 38.446C78.584 38.2407 79.2245 37.7896 80.08 36.9859L80.0485 36.9524ZM80.6787 38.7138C80.3247 38.7954 80.0873 38.775 79.9354 38.6915C79.7851 38.6089 79.7136 38.4616 79.6982 38.2753C79.6827 38.0884 79.7241 37.8652 79.7974 37.6375C79.8707 37.4102 79.9752 37.1801 80.0844 36.9801L80.0441 36.9581C79.9338 37.16 79.828 37.3928 79.7537 37.6234C79.6795 37.8537 79.6362 38.0836 79.6524 38.2791C79.6687 38.4752 79.7453 38.6394 79.9133 38.7317C80.0798 38.8232 80.3308 38.8411 80.689 38.7585L80.6787 38.7138ZM82.0964 38.2108C81.8184 38.3498 81.5496 38.4756 81.3076 38.5666C81.0651 38.6578 80.8517 38.7132 80.6839 38.7132V38.7591C80.8602 38.7591 81.08 38.7012 81.3237 38.6095C81.568 38.5177 81.8385 38.391 82.1169 38.2518L82.0964 38.2108ZM86.4961 34.3372C85.6895 35.1805 83.2245 37.2724 82.092 38.2136L82.1213 38.2489C83.253 37.3084 85.7204 35.2146 86.5293 34.3689L86.4961 34.3372ZM85.6825 38.7136C85.032 38.8327 84.6873 38.7196 84.5442 38.4745C84.4719 38.3507 84.4484 38.1896 84.4662 37.9989C84.4839 37.8083 84.5428 37.5901 84.6329 37.3543C84.9937 36.4099 85.85 35.1972 86.5305 34.3676L86.495 34.3385C85.8139 35.1688 84.9536 36.3863 84.59 37.3379C84.4991 37.576 84.4388 37.7984 84.4205 37.9946C84.4022 38.1907 84.4257 38.3626 84.5046 38.4977C84.6638 38.7703 85.0377 38.8783 85.6907 38.7587L85.6825 38.7136ZM88.0366 37.4252C87.5141 37.8144 87.0175 38.1449 86.6052 38.374C86.399 38.4886 86.2144 38.5776 86.0585 38.6358C85.9018 38.6943 85.7767 38.7209 85.6886 38.7133L85.6846 38.759C85.7833 38.7675 85.9164 38.7379 86.0745 38.6788C86.2334 38.6195 86.4202 38.5294 86.6275 38.4142C87.0422 38.1837 87.5405 37.8519 88.064 37.462L88.0366 37.4252ZM89.4745 36.0467C89.0186 36.4884 88.5474 36.945 88.0346 37.4269L88.066 37.4603C88.5792 36.9782 89.0506 36.5213 89.5064 36.0797L89.4745 36.0467ZM89.4747 36.0465L89.4745 36.0467L89.5064 36.0797L89.5065 36.0795L89.4747 36.0465ZM89.475 36.0462L89.4748 36.0464L89.5064 36.0797L89.5066 36.0795L89.475 36.0462ZM91.4542 34.1753C90.7729 34.7885 90.1402 35.4016 89.4748 36.0464L89.5067 36.0793C90.1723 35.4345 90.8044 34.8219 91.4849 34.2094L91.4542 34.1753ZM88.8994 37.91C88.8994 37.908 88.9001 37.903 88.9032 37.8938C88.9061 37.885 88.9106 37.8739 88.9168 37.8604C88.9293 37.8336 88.9479 37.7988 88.9722 37.7567C89.0209 37.6726 89.0915 37.5609 89.1792 37.4278C89.3546 37.1619 89.5975 36.8122 89.8676 36.4317C90.4077 35.6707 91.0559 34.7874 91.488 34.2061L91.4512 34.1787C91.0189 34.7601 90.3705 35.6438 89.8301 36.4051C89.56 36.7857 89.3167 37.1359 89.1409 37.4026C89.053 37.5358 88.9818 37.6485 88.9325 37.7338C88.9079 37.7764 88.8885 37.8125 88.8752 37.8411C88.8686 37.8554 88.8633 37.8682 88.8596 37.8793C88.8561 37.8898 88.8535 37.9005 88.8535 37.91H88.8994ZM89.5297 38.358C89.4049 38.4365 89.3041 38.4693 89.2238 38.4707C89.1443 38.4722 89.0832 38.4431 89.0359 38.3935C88.9881 38.3433 88.9538 38.2712 88.9316 38.1864C88.9094 38.1017 88.8995 38.0059 88.8994 37.91L88.8535 37.9101C88.8536 38.0088 88.8638 38.1087 88.8872 38.198C88.9106 38.2871 88.9476 38.3673 89.0027 38.4252C89.0584 38.4836 89.1318 38.5183 89.2246 38.5166C89.3164 38.515 89.4255 38.4778 89.5541 38.3969L89.5297 38.358ZM90.1674 37.654C90.0367 37.8209 89.9197 37.9704 89.8136 38.0918C89.7073 38.2135 89.6136 38.3053 89.5297 38.358L89.5541 38.3969C89.644 38.3403 89.7414 38.2442 89.8482 38.122C89.9552 37.9995 90.0731 37.8489 90.2036 37.6823L90.1674 37.654ZM90.948 36.7239C90.6435 37.046 90.3866 37.3741 90.1674 37.654L90.2036 37.6823C90.4229 37.4022 90.6785 37.0758 90.9814 36.7554L90.948 36.7239ZM94.8188 34.0391C94.8455 33.9601 94.8601 33.8946 94.8625 33.8419C94.865 33.7895 94.8556 33.7467 94.831 33.7167C94.8058 33.6861 94.7683 33.6734 94.7248 33.6732C94.6818 33.6731 94.6304 33.6851 94.5728 33.7066C94.3429 33.7923 93.9843 34.0387 93.57 34.366C92.7399 35.0219 91.6755 36.0117 90.9487 36.7233L90.9808 36.7561C91.7073 36.0448 92.7702 35.0564 93.5985 34.402C94.0134 34.0741 94.3667 33.8324 94.5888 33.7496C94.6441 33.729 94.6895 33.719 94.7247 33.7191C94.7594 33.7192 94.7817 33.7291 94.7955 33.7459C94.8099 33.7634 94.8189 33.7928 94.8167 33.8397C94.8145 33.8864 94.8014 33.9474 94.7753 34.0244L94.8188 34.0391ZM92.4913 38.7166C92.3347 38.6204 92.2335 38.4961 92.1777 38.35C92.1218 38.2035 92.111 38.0336 92.1381 37.8456C92.1922 37.4691 92.3975 37.0252 92.6852 36.5648C93.2603 35.6446 94.1595 34.6673 94.8129 34.0484L94.7813 34.0151C94.1266 34.6354 93.2243 35.6156 92.6463 36.5405C92.3575 37.0026 92.1482 37.4531 92.0926 37.8391C92.0648 38.0323 92.0754 38.2106 92.1348 38.3664C92.1944 38.5225 92.3026 38.6545 92.4673 38.7557L92.4913 38.7166ZM93.0457 38.4C93.1778 38.4237 93.2787 38.449 93.3528 38.4748C93.4275 38.5008 93.4727 38.5265 93.4958 38.5494C93.5071 38.5607 93.512 38.5701 93.5136 38.5775C93.5151 38.5844 93.5141 38.5916 93.5096 38.5998C93.4996 38.6178 93.4737 38.6386 93.4288 38.6589C93.3405 38.6989 93.1956 38.7299 93.026 38.7421C92.8568 38.7543 92.6649 38.7476 92.4835 38.7136L92.4751 38.7587C92.6609 38.7936 92.8567 38.8003 93.0293 38.7879C93.2014 38.7755 93.3524 38.7439 93.4477 38.7007C93.4946 38.6795 93.5323 38.6536 93.5498 38.622C93.5589 38.6054 93.5625 38.587 93.5585 38.5679C93.5545 38.5493 93.5437 38.5323 93.5282 38.5169C93.4976 38.4865 93.4444 38.4581 93.3679 38.4315C93.2907 38.4046 93.1873 38.3788 93.0538 38.3548L93.0457 38.4ZM93.8285 36.577C93.424 36.9952 93.067 37.364 92.89 37.6686C92.8015 37.8208 92.7555 37.9611 92.7746 38.0856C92.7941 38.2119 92.8795 38.3161 93.0393 38.3979L93.0602 38.357C92.9087 38.2795 92.8365 38.1858 92.82 38.0786C92.8032 37.9697 92.8429 37.8409 92.9297 37.6916C93.1032 37.3931 93.4552 37.029 93.8615 36.6089L93.8285 36.577ZM95.7847 33.7963C95.6424 34.3215 95.3415 34.8225 94.9815 35.2897C94.6216 35.7569 94.2038 36.189 93.8285 36.577L93.8615 36.6089C94.2365 36.2212 94.6562 35.7873 95.0179 35.3177C95.3796 34.8483 95.6845 34.3418 95.829 33.8083L95.7847 33.7963ZM91.7394 35.4925C92.3376 34.8007 93.3336 33.9459 94.1904 33.4831C94.6197 33.2512 95.0095 33.1202 95.2956 33.1528C95.4375 33.1689 95.5529 33.2252 95.636 33.3288C95.7195 33.4329 95.7725 33.5874 95.7839 33.8035L95.8297 33.8011C95.818 33.5792 95.7634 33.4143 95.6718 33.3001C95.5798 33.1854 95.4524 33.1245 95.3008 33.1072C94.9997 33.0729 94.599 33.2102 94.1686 33.4427C93.306 33.9087 92.3058 34.7673 91.7046 35.4625L91.7394 35.4925ZM91.9552 35.0749L91.7027 35.465L91.7413 35.49L91.9937 35.0998L91.9552 35.0749ZM92.6571 33.9698C92.4785 34.2295 92.2406 34.5753 91.9545 35.076L91.9944 35.0988C92.2795 34.5998 92.5164 34.2553 92.695 33.9958L92.6571 33.9698ZM92.6564 33.971L92.6564 33.971L92.6957 33.9946L92.6957 33.9946L92.6564 33.971ZM93.0269 33.2722C93.0178 33.3642 92.9818 33.457 92.9194 33.5681C92.8569 33.6794 92.7689 33.8073 92.6572 33.9698L92.695 33.9958C92.8063 33.8339 92.8957 33.7041 92.9594 33.5905C93.0233 33.4768 93.0626 33.3777 93.0726 33.2767L93.0269 33.2722ZM92.2775 32.8379C92.465 32.7982 92.6657 32.793 92.8123 32.8546C92.885 32.8851 92.9438 32.9319 92.9819 32.9987C93.02 33.0656 93.0386 33.1547 93.0269 33.2722L93.0726 33.2767C93.0849 33.1522 93.0657 33.053 93.0218 32.9759C92.9778 32.8988 92.9103 32.846 92.8301 32.8123C92.6708 32.7453 92.4591 32.7526 92.268 32.793L92.2775 32.8379ZM88.1579 36.7563L92.2886 32.8321L92.257 32.7989L88.1263 36.723L88.1579 36.7563ZM86.1512 36.2427C85.6124 36.863 85.2853 37.3645 85.1439 37.7285C85.0733 37.9103 85.0479 38.0604 85.068 38.175C85.0884 38.2916 85.1559 38.3702 85.2653 38.4052C85.3725 38.4394 85.5179 38.4312 85.6955 38.3822C85.8737 38.333 86.0871 38.2421 86.3319 38.1076C86.8215 37.8387 87.4394 37.3943 88.1573 36.7568L88.1268 36.7225C87.4105 37.3586 86.7954 37.8006 86.3098 38.0674C86.0669 38.2008 85.857 38.29 85.6833 38.3379C85.5091 38.386 85.3741 38.3918 85.2793 38.3615C85.1867 38.3319 85.1308 38.2675 85.1132 38.1671C85.0952 38.0646 85.1173 37.9237 85.1867 37.7451C85.3253 37.3885 85.6483 36.8917 86.1858 36.2728L86.1512 36.2427ZM87.1625 33.0897C87.3696 33.0213 87.5819 32.9869 87.7405 33.0208C87.8193 33.0376 87.8833 33.0709 87.9277 33.1238C87.9719 33.1765 87.9986 33.2512 87.9981 33.3547C87.997 33.5632 87.8857 33.8827 87.5976 34.3532C87.3101 34.8229 86.8484 35.44 86.1512 36.2427L86.1858 36.2728C86.8839 35.4691 87.3474 34.8499 87.6368 34.3772C87.9256 33.9054 88.0429 33.5767 88.044 33.3549C88.0445 33.2432 88.0156 33.1572 87.9628 33.0943C87.9102 33.0315 87.8359 32.9942 87.7501 32.9759C87.5795 32.9395 87.3578 32.9769 87.1481 33.0461L87.1625 33.0897ZM81.5454 38.1588C83.2227 37.0788 85.9233 34.6263 87.1731 33.0824L87.1374 33.0535C85.8905 34.5938 83.1936 37.043 81.5205 38.1202L81.5454 38.1588ZM82.0279 35.4817C81.7277 35.8858 81.4113 36.3116 81.1392 36.7083C80.8674 37.1048 80.6387 37.4736 80.5148 37.7634C80.4529 37.9081 80.4161 38.0353 80.4143 38.1375C80.4125 38.2407 80.4466 38.322 80.5297 38.3664C80.61 38.4092 80.7309 38.4144 80.8951 38.3818C81.0603 38.349 81.2736 38.2771 81.5421 38.1606L81.5238 38.1185C81.2567 38.2344 81.0468 38.3049 80.8862 38.3368C80.7247 38.3688 80.6171 38.361 80.5513 38.3259C80.4882 38.2922 80.4586 38.2305 80.4602 38.1383C80.4619 38.0451 80.4959 37.9244 80.557 37.7815C80.679 37.4961 80.9054 37.1305 81.1771 36.7343C81.4486 36.3384 81.7644 35.9133 82.0647 35.5091L82.0279 35.4817ZM82.6616 34.6152C82.4776 34.8764 82.2575 35.1727 82.0279 35.4817L82.0647 35.5091C82.2943 35.2002 82.5148 34.9034 82.6991 34.6416L82.6616 34.6152ZM82.3709 33.5925C82.4943 33.5184 82.6331 33.4506 82.7571 33.4145C82.8191 33.3964 82.8765 33.3865 82.9258 33.3872C82.9751 33.3879 83.0146 33.3992 83.0431 33.4216C83.0988 33.4653 83.1252 33.5629 83.0729 33.7572C83.0211 33.9495 82.8944 34.2271 82.6607 34.6166L82.7 34.6402C82.9345 34.2495 83.0638 33.9677 83.1172 33.7691C83.1701 33.5726 83.151 33.4479 83.0715 33.3855C83.0324 33.3548 82.9819 33.3421 82.9264 33.3413C82.871 33.3405 82.8088 33.3516 82.7443 33.3704C82.6151 33.4081 82.4725 33.478 82.3473 33.5531L82.3709 33.5925ZM77.9914 35.265C79.1482 34.2164 80.008 33.4966 80.6942 33.1896C81.0366 33.0364 81.3333 32.9873 81.6007 33.0494C81.8679 33.1115 82.1097 33.2856 82.3409 33.5868L82.3773 33.5588C82.142 33.2522 81.8918 33.0699 81.6111 33.0047C81.3305 32.9395 81.0232 32.9921 80.6755 33.1477C79.9813 33.4583 79.1159 34.1838 77.9605 35.231L77.9914 35.265ZM88.8398 30.7916C88.8993 30.8354 88.9795 30.8567 89.0701 30.8603C89.1609 30.864 89.264 30.85 89.3716 30.8217C89.5866 30.7649 89.8219 30.6496 90.0157 30.4962C90.2092 30.343 90.3637 30.1499 90.4126 29.9366C90.4619 29.7215 90.4028 29.4902 90.1777 29.2652L90.1453 29.2977C90.3609 29.5133 90.4131 29.7289 90.3678 29.9263C90.3222 30.1255 90.1764 30.3105 89.9872 30.4602C89.7983 30.6097 89.5687 30.7222 89.3599 30.7773C89.2555 30.8048 89.157 30.8179 89.0719 30.8144C88.9866 30.811 88.9166 30.7911 88.8671 30.7546L88.8398 30.7916ZM90.1645 29.2587C89.5316 29.1749 89.0586 29.4503 88.814 29.8C88.6919 29.9746 88.6262 30.1684 88.627 30.3457C88.6277 30.5234 88.6953 30.6851 88.8398 30.7916L88.8671 30.7546C88.7362 30.6582 88.6736 30.5113 88.6729 30.3455C88.6722 30.1792 88.7339 29.9945 88.8516 29.8263C89.0866 29.4903 89.543 29.2227 90.1585 29.3042L90.1645 29.2587ZM77.9759 37.8871C77.9053 37.8871 77.8557 37.8734 77.8227 37.8504C77.7905 37.828 77.7716 37.7949 77.7654 37.75C77.7592 37.7044 77.7662 37.6467 77.7869 37.5778C77.8074 37.509 77.841 37.4304 77.8863 37.3434C78.0677 36.9947 78.4317 36.5199 78.8703 36.0187C79.7473 35.0167 80.9162 33.9169 81.4998 33.523L81.4742 33.4849C80.8857 33.8821 79.7138 34.9853 78.8357 35.9885C78.3968 36.49 78.0297 36.9684 77.8456 37.3222C77.7995 37.4108 77.7646 37.4922 77.7429 37.5646C77.7213 37.6368 77.7124 37.7015 77.7199 37.7563C77.7276 37.8118 77.7521 37.8572 77.7965 37.8881C77.8401 37.9184 77.9002 37.933 77.9759 37.933V37.8871ZM80.2066 36.0834C80.0236 36.3235 79.5942 36.833 79.1449 37.2536C78.9202 37.464 78.6915 37.6513 78.4867 37.7716C78.3843 37.8317 78.2889 37.8746 78.2036 37.8955C78.1182 37.9164 78.0449 37.915 77.9851 37.889L77.9668 37.9311C78.0389 37.9624 78.1233 37.9624 78.2145 37.9401C78.3057 37.9177 78.4055 37.8725 78.51 37.8111C78.719 37.6883 78.9507 37.4984 79.1763 37.2871C79.6278 36.8644 80.0589 36.3529 80.2431 36.1112L80.2066 36.0834ZM81.4883 33.5269C81.7218 33.5142 81.8475 33.5764 81.893 33.6864C81.9164 33.743 81.9205 33.8155 81.9036 33.9041C81.8868 33.9926 81.8493 34.0956 81.7916 34.2115C81.5604 34.6758 81.0111 35.3346 80.2092 36.0805L80.2405 36.1141C81.0433 35.3674 81.5977 34.7039 81.8327 34.2319C81.8916 34.1137 81.9308 34.0067 81.9487 33.9127C81.9666 33.8189 81.9634 33.7365 81.9354 33.6689C81.8783 33.5307 81.7248 33.4681 81.4858 33.481L81.4883 33.5269Z" fill="black"/>
    <path fill-rule="evenodd" clip-rule="evenodd" d="M17.9919 12.2994C20.2878 12.1624 25.8106 12.7838 28.779 15.5656L29.4234 13.1771C31.7563 14.3436 37.4554 7.12471 30.7898 3.75636C30.0307 1.65299 27.2437 -1.81386 22.169 1.14567C19.2139 0.567979 13.3393 4.8482 19.2139 9.67764L17.9919 12.2994ZM28.5902 17.5875C23.7612 14.2684 17.2913 13.7687 11.7817 15.7144C5.59383 18.6873 0.619734 23.6865 0.619734 32.9739C0.801083 34.9663 1.28638 37.1055 2.12772 39.384C4.64954 44.0166 7.63795 46.7717 14.6591 48.6492C18.9234 49.7895 24.5055 48.8514 29.8566 44.8943C20.5426 53.7817 10.4819 49.0788 6.61589 45.6164C2.43878 41.9725 0.839035 37.8731 0.0458096 32.9739C-0.122327 30.2582 0.19569 27.7628 0.619734 26.075C7.72313 9.29548 22.9244 12.5216 28.5902 17.5875ZM29.7064 4.52151C29.9397 1.82193 24.9716 -0.830976 22.652 2.33296C18.0038 1.44422 15.7975 7.19886 19.8857 8.59863L19.6191 11.0871C20.6025 10.9818 23.1963 11.5093 25.3071 12.6237C26.462 13.0595 27.5501 13.506 28.3288 13.8422L29.262 12.1536C34.5723 11.3093 33.0614 4.97699 29.9064 4.71036C29.0976 5.43025 28.0578 6.23679 27.2401 6.03237C26.4225 5.82796 26.8328 5.66577 27.1401 5.61022C27.6692 6.16867 28.5385 5.46195 29.2695 4.86759C29.4227 4.74308 29.5698 4.62349 29.7064 4.52151Z" fill="#F9B233"/>
    <path fill-rule="evenodd" clip-rule="evenodd" d="M15.7653 23.4658C15.5372 26.5464 14.1452 30.0109 10.9276 28.99C10.4798 28.848 10.1264 28.4387 9.94641 27.6874C9.67258 26.303 10.0821 23.2718 13.8942 22.1651C15.4132 21.7241 16.8664 21.7565 18.3387 21.7895C19.6089 21.8179 20.8932 21.8466 22.246 21.5718C19.2111 24.0819 17.7963 27.9612 15.2633 35.058C14.1943 37.7208 12.5464 39.6827 10.9276 40.6098C8.46315 41.2649 6.59196 40.8085 6.08994 38.2071C6.0619 37.811 6.08974 37.1976 6.25472 36.5869C6.35306 36.4639 6.45919 36.3378 6.56681 36.2099L6.56683 36.2099L6.56684 36.2099C7.17788 35.484 7.83688 34.701 7.39064 34.0996C6.81255 33.6888 5.58335 33.6615 5.29126 36.8379C5.2597 37.9455 5.45977 39.2891 6.08994 40.2647C7.13027 41.8753 10.5169 42.9079 13.6203 39.3709C14.2294 38.4745 14.9964 37.2816 15.7653 35.9853C16.7869 33.1874 17.4927 31.439 18.0511 30.0559L18.0511 30.0559L18.0512 30.0558L18.0512 30.0558C18.4657 29.0291 18.799 28.2036 19.1198 27.2994C19.8196 25.8004 21.3515 23.055 21.9722 23.055C21.5107 23.9388 20.9668 25.2877 20.501 26.8202C20.1417 28.4991 20.074 29.5898 20.0117 30.592V30.592C19.9453 31.6603 19.8852 32.6278 19.4849 34.0996C19.1426 35.9175 18.1888 39.2613 17.1117 39.3709C16.8682 41.2276 18.6954 39.3084 20.2983 36.6325C20.5707 36.0133 20.8678 35.4387 21.1525 34.8879L21.1525 34.8879L21.1525 34.8878C21.5918 34.0381 22.0017 33.2453 22.246 32.4338C23.3794 29.414 26.9103 22.8451 31.9671 20.7274C30.6347 21.2854 28.1653 24.9429 26.6256 29.1706C25.3495 34.0996 24.528 40.6098 28.2247 42.2233C32.4417 43.0265 33.2678 38.6178 32.2637 38.6178C30.8763 42.8349 28.7039 41.7029 27.7911 40.6098C26.5936 36.6569 27.2739 32.5182 28.6171 28.9424C30.5183 23.4041 31.4762 22.4971 32.7974 21.2463L32.7974 21.2462L32.7974 21.2462L32.7974 21.2462L32.7975 21.2461C33.0114 21.0436 33.2347 20.8321 33.4732 20.5905C34.8606 20.5905 34.4088 19.6549 34.0893 19.6549C28.2658 19.2533 23.2045 27.8243 21.3789 32.4338C21.799 30.8048 21.955 29.3175 22.1022 27.9139C22.3467 25.5817 22.5671 23.4804 23.9347 21.3436C26.8099 20.5221 25.1669 18.8791 23.2045 20.7274C21.001 21.207 19.4013 21.186 17.8909 21.1661C16.7421 21.151 15.6451 21.1366 14.3734 21.3436C12.7973 21.7236 11.6965 22.226 10.9276 22.8024C9.42156 24.2644 9.14773 25.7953 9.14773 27.2994C9.16599 30.129 12.4565 30.3116 14.7385 28.99C17.2258 27.1397 16.4727 23.4658 15.7653 23.4658ZM34.5229 30.9962C33.998 29.3988 30.9174 28.9424 29.6395 33.3694C28.9545 35.7426 30.461 39.7679 33.1993 35.058C32.857 37.0661 35.0021 39.3754 37.6491 33.3694C37.9153 32.7304 38.491 31.7307 38.6532 31.6123C38.9887 31.3674 38.6611 32.1751 38.2231 33.2545C37.5592 34.891 36.6418 37.1521 37.3981 37.3171C38.2551 37.8709 38.6169 36.9087 39.1086 35.6015C39.4679 34.6461 39.8965 33.5063 40.6385 32.6392C41.6045 31.3309 43.2764 29.3851 42.2358 32.0687C40.9911 34.0957 40.3699 36.7324 41.711 37.1933C42.0909 37.3239 42.715 37.5225 43.354 36.9977C43.6582 36.701 44.3991 35.8339 44.9285 34.7385C44.9589 36.0621 45.5537 38.2755 47.6896 36.5413C47.142 40.0555 45.07 46.7415 41.1633 45.3724C40.4026 44.9692 39.1643 43.5742 40.2962 41.2192C41.711 39.987 40.0908 38.4125 39.1552 40.8541C37.6491 47.0382 45.1795 48.9094 47.895 41.2192C48.5719 39.3024 49.3098 36.9977 50.04 33.9298C50.7782 31.971 51.5962 30.354 52.3676 29.9237C52.2033 28.8648 50.7474 30.38 50.04 31.1787C48.9675 28.3719 45.7272 30.8364 45.1795 33.0043C42.6237 38.0245 42.4716 36.4652 42.715 35.058C42.992 34.4828 43.2337 33.9992 43.4396 33.5871C44.4689 31.5273 44.6052 31.2547 43.7875 30.2659C42.5803 29.4612 41.7635 30.3982 40.8198 31.4807L40.8197 31.4808C40.6503 31.6751 40.4768 31.8742 40.2962 32.0687C40.424 30.3161 38.927 30.4406 38.2881 30.9962C38.0716 31.1844 37.8396 31.6871 37.5248 32.3692C37.0764 33.3408 36.46 34.6763 35.4813 35.9853C33.7287 37.6216 34.9108 33.7345 36.28 31.4526C37.2292 29.627 34.6598 29.8324 34.5229 30.9962ZM53.5314 33.7345C55.9594 33.844 56.9999 30.8821 55.9959 30.2203C55.1135 29.5966 53.0431 29.4262 51.8199 33.7345C51.2038 36.3815 53.5314 39.4165 56.1328 35.6513C57.0684 34.1224 58.4649 31.0464 58.3919 30.8821C58.6886 30.9962 59.1815 31.4754 58.7798 32.4794C57.7302 34.6016 56.8402 36.701 58.8939 37.4769C58.9416 37.4676 58.9893 37.4635 59.0388 37.4592C59.5188 37.4177 60.1682 37.3615 62.5679 32.4794C62.5679 32.16 62.3656 31.8861 62.1072 32.2741C61.8916 32.5978 61.6099 33.1335 61.2672 33.9298C58.5836 38.3031 58.932 36.6867 59.4416 35.3318C59.5884 34.9021 59.7631 34.5076 59.9202 34.1529L59.9202 34.1528L59.9203 34.1528L59.9203 34.1527C60.1052 33.7354 60.2657 33.373 60.3276 33.0727C60.59 31.8009 60.0381 31.441 59.5852 31.1457C59.4528 31.0594 59.3289 30.9785 59.2362 30.8821C58.8711 30.6447 58.8559 30.4333 58.8939 30.3572C58.8045 30.1635 58.9156 29.9665 59.0177 29.7854C59.072 29.6891 59.1237 29.5973 59.1415 29.5129C59.7059 26.8318 56.7012 28.6606 57.9355 30.5854L57.2281 32.16C55.0146 37.4997 52.4361 38.1843 53.5314 33.7345ZM33.998 32.023C34.4772 30.7908 32.3778 29.1816 30.9174 34.6701C30.4792 38.668 32.9419 34.7385 33.998 32.023ZM49.5608 32.0687C49.2565 32.6239 48.6343 33.8029 48.5796 34.0768C46.2063 38.6406 45.4533 35.4688 47.6896 31.6123C48.5796 30.6082 49.5608 30.3781 49.5608 32.0687ZM53.6911 33.1868C54.0217 33.2161 54.541 33.1123 54.9566 32.6848L54.991 32.6495C55.3409 32.2909 55.9832 31.6326 55.6079 30.8821C55.2808 30.7375 54.4396 30.9962 53.6911 33.1868Z" fill="#3D110F"/>
    <path d="M10.9276 28.99L10.9345 28.9683L10.9276 28.99ZM15.7653 23.4658V23.443H15.7442L15.7426 23.4641L15.7653 23.4658ZM9.94641 27.6874L9.92401 27.6918L9.92422 27.6927L9.94641 27.6874ZM13.8942 22.1651L13.8878 22.1432L13.8942 22.1651ZM18.3387 21.7895L18.3392 21.7666L18.3387 21.7895ZM22.246 21.5718L22.2606 21.5893L22.2415 21.5494L22.246 21.5718ZM15.2633 35.058L15.2845 35.0665L15.2848 35.0657L15.2633 35.058ZM10.9276 40.6098L10.9337 40.6326L10.939 40.6296L10.9276 40.6098ZM6.08994 38.2071L6.06701 38.2087L6.06753 38.2114L6.08994 38.2071ZM6.25472 36.5869L6.23528 36.5714L6.23269 36.5809L6.25472 36.5869ZM6.56681 36.2099L6.58428 36.2246L6.58479 36.224L6.56681 36.2099ZM6.56683 36.2099L6.55057 36.1937L6.54885 36.1959L6.56683 36.2099ZM6.56684 36.2099L6.58304 36.2261L6.5843 36.2246L6.56684 36.2099ZM7.39064 34.0996L7.40991 34.0853L7.40386 34.081L7.39064 34.0996ZM5.29126 36.8379L5.26849 36.8358L5.26845 36.8373L5.29126 36.8379ZM6.08994 40.2647L6.10911 40.2523L6.08994 40.2647ZM13.6203 39.3709L13.6376 39.386L13.6392 39.3837L13.6203 39.3709ZM15.7653 35.9853L15.7853 35.9971L15.7868 35.9931L15.7653 35.9853ZM18.0511 30.0559L18.0723 30.0644L18.0723 30.0644L18.0511 30.0559ZM18.0511 30.0559L18.0303 30.0466L18.03 30.0474L18.0511 30.0559ZM18.0512 30.0558L18.0721 30.0652L18.0728 30.0631L18.0512 30.0558ZM18.0512 30.0558L18.03 30.0473L18.0295 30.0486L18.0512 30.0558ZM19.1198 27.2994L19.099 27.2897L19.0983 27.2918L19.1198 27.2994ZM21.9722 23.055L21.9924 23.0656L22.0099 23.0322H21.9722V23.055ZM20.501 26.8202L20.4791 26.8136L20.4787 26.8154L20.501 26.8202ZM20.0117 30.592L19.9889 30.5905V30.592H20.0117ZM20.0117 30.592L20.0345 30.5934V30.592H20.0117ZM19.4849 34.0996L19.4628 34.0936L19.4625 34.0954L19.4849 34.0996ZM17.1117 39.3709L17.1094 39.3482L17.0914 39.35L17.0891 39.3679L17.1117 39.3709ZM20.2983 36.6325L20.318 36.6444L20.3192 36.6417L20.2983 36.6325ZM21.1525 34.8879L21.1728 34.8984L21.1729 34.8981L21.1525 34.8879ZM21.1525 34.8878L21.1323 34.8773L21.1321 34.8776L21.1525 34.8878ZM22.246 32.4338L22.2246 32.4257L22.2242 32.4272L22.246 32.4338ZM26.6256 29.1706L26.604 29.1628L26.6035 29.1649L26.6256 29.1706ZM28.2247 42.2233L28.2154 42.2447L28.2204 42.2457L28.2247 42.2233ZM32.2637 38.6178V38.595H32.2472L32.2421 38.6107L32.2637 38.6178ZM27.7911 40.6098L27.7674 40.617L27.7736 40.6244L27.7911 40.6098ZM28.6171 28.9424L28.6384 28.9505L28.6386 28.9498L28.6171 28.9424ZM32.7974 21.2463L32.7821 21.2293L32.7817 21.2297L32.7974 21.2463ZM32.7974 21.2462L32.7824 21.2291L32.7821 21.2293L32.7974 21.2462ZM32.7974 21.2462L32.8125 21.2634L32.8136 21.2623L32.7974 21.2462ZM32.7974 21.2462L32.782 21.2294L32.7813 21.23L32.7974 21.2462ZM32.7975 21.2461L32.813 21.2629L32.8132 21.2627L32.7975 21.2461ZM33.4732 20.5905V20.5677H33.4636L33.4569 20.5745L33.4732 20.5905ZM34.0893 19.6549L34.0877 19.6778H34.0893V19.6549ZM21.3789 32.4338L21.3568 32.4281L21.4001 32.4422L21.3789 32.4338ZM22.1022 27.9139L22.1249 27.9163V27.9163L22.1022 27.9139ZM23.9347 21.3436L23.9284 21.3216L23.9201 21.324L23.9155 21.3313L23.9347 21.3436ZM23.2045 20.7274L23.2101 20.7535L23.2201 20.7441L23.2045 20.7274ZM17.8909 21.1661L17.8912 21.1433L17.8909 21.1661ZM14.3734 21.3436L14.3697 21.321L14.368 21.3214L14.3734 21.3436ZM10.9276 22.8024L10.9138 22.784L10.9117 22.786L10.9276 22.8024ZM9.14773 27.2994H9.12491L9.12492 27.2996L9.14773 27.2994ZM14.7385 28.99L14.75 29.0099L14.7521 29.0084L14.7385 28.99ZM29.6395 33.3694L29.6614 33.3757L29.6395 33.3694ZM34.5229 30.9962L34.5012 31.0033L34.5455 30.9988L34.5229 30.9962ZM33.1993 35.058L33.2218 35.0618L33.1796 35.0465L33.1993 35.058ZM37.6491 33.3694L37.67 33.3786L37.6702 33.3782L37.6491 33.3694ZM38.6532 31.6123L38.6666 31.6307L38.6532 31.6123ZM38.2231 33.2545L38.2443 33.263V33.263L38.2231 33.2545ZM37.3981 37.3171L37.4113 37.2967L37.403 37.2948L37.3981 37.3171ZM39.1086 35.6015L39.0872 35.5934L39.1086 35.6015ZM40.6385 32.6392L40.6558 32.654L40.6568 32.6527L40.6385 32.6392ZM42.2358 32.0687L42.2556 32.0808L42.2571 32.0769L42.2358 32.0687ZM41.711 37.1933L41.7184 37.1717L41.711 37.1933ZM43.354 36.9977L43.3685 37.0154L43.3699 37.014L43.354 36.9977ZM44.9285 34.7385L44.9513 34.738L44.9079 34.7286L44.9285 34.7385ZM47.6896 36.5413L47.7122 36.5448L47.7213 36.4861L47.6752 36.5236L47.6896 36.5413ZM41.1633 45.3724L41.1525 45.3928L41.1558 45.3939L41.1633 45.3724ZM40.2962 41.2192L40.2798 41.2005L40.2756 41.2094L40.2962 41.2192ZM39.1552 40.8541L39.1337 40.8459L39.133 40.8487L39.1552 40.8541ZM47.895 41.2192L47.9165 41.2268L47.895 41.2192ZM50.04 33.9298L50.0185 33.9217L50.0178 33.9245L50.04 33.9298ZM52.3676 29.9237L52.3787 29.9436L52.3926 29.9358L52.3902 29.9202L52.3676 29.9237ZM50.04 31.1787L50.0187 31.1869L50.0322 31.222L50.0571 31.1939L50.04 31.1787ZM45.1795 33.0043L45.2004 33.0149L45.2016 33.0099L45.1795 33.0043ZM42.715 35.058L42.6936 35.0477L42.6925 35.0541L42.715 35.058ZM43.4396 33.5871L43.46 33.5973L43.4396 33.5871ZM43.7875 30.2659L43.8059 30.2508L43.8002 30.247L43.7875 30.2659ZM40.8198 31.4807L40.8026 31.4657L40.8023 31.466L40.8198 31.4807ZM40.8197 31.4808L40.8369 31.4958L40.8372 31.4955L40.8197 31.4808ZM40.2962 32.0687L40.2734 32.067L40.2687 32.1318L40.3129 32.0842L40.2962 32.0687ZM38.2881 30.9962L38.2731 30.9789L38.2881 30.9962ZM37.5248 32.3692L37.5455 32.3787L37.5248 32.3692ZM35.4813 35.9853L35.4971 36.0022L35.4996 35.9989L35.4813 35.9853ZM36.28 31.4526L36.2996 31.4643L36.3002 31.4631L36.28 31.4526ZM55.9959 30.2203L55.9827 30.239L55.9833 30.2394L55.9959 30.2203ZM53.5314 33.7345L53.5324 33.7117L53.5137 33.7108L53.5092 33.729L53.5314 33.7345ZM51.8199 33.7345L51.798 33.7283L51.7977 33.7293L51.8199 33.7345ZM56.1328 35.6513L56.1516 35.6643L56.1523 35.6632L56.1328 35.6513ZM58.3919 30.8821L58.4001 30.8608L58.3487 30.841L58.3711 30.8913L58.3919 30.8821ZM58.7798 32.4794L58.8004 32.4896L58.801 32.4879L58.7798 32.4794ZM58.8939 37.4769L58.8845 37.5019L58.8983 37.4993L58.8939 37.4769ZM59.0388 37.4592L59.0368 37.4365L59.0388 37.4592ZM62.5679 32.4794L62.5907 32.4906V32.4794H62.5679ZM62.1072 32.2741L62.0882 32.2614L62.1072 32.2741ZM61.2672 33.9298L61.2868 33.9419L61.2881 33.9388L61.2672 33.9298ZM59.4416 35.3318L59.463 35.3399L59.4632 35.3392L59.4416 35.3318ZM59.9202 34.1529L59.9411 34.1622L59.9411 34.162L59.9202 34.1529ZM59.9202 34.1528L59.8996 34.1431L59.8993 34.1438L59.9202 34.1528ZM59.9203 34.1528L59.9411 34.1626L59.9421 34.1595L59.9203 34.1528ZM59.9203 34.1527L59.8993 34.1434L59.8985 34.146L59.9203 34.1527ZM60.3276 33.0727L60.35 33.0773L60.3276 33.0727ZM59.5852 31.1457L59.5977 31.1266L59.5852 31.1457ZM59.2362 30.8821L59.2531 30.8658L59.2487 30.8629L59.2362 30.8821ZM58.8939 30.3572L58.9143 30.3674L58.9193 30.3576L58.9147 30.3477L58.8939 30.3572ZM59.0177 29.7854L59.0376 29.7966L59.0177 29.7854ZM59.1415 29.5129L59.1638 29.5176L59.1415 29.5129ZM57.9355 30.5854L57.9563 30.5948L57.9614 30.5835L57.9547 30.5731L57.9355 30.5854ZM57.2281 32.16L57.2073 32.1506L57.207 32.1512L57.2281 32.16ZM33.998 32.023L34.0192 32.0313L33.998 32.023ZM30.9174 34.6701L30.8951 34.6641L30.8947 34.6676L30.9174 34.6701ZM48.5796 34.0768L48.6006 34.0877L48.6019 34.0813L48.5796 34.0768ZM49.5608 32.0687L49.5836 32.0812V32.0687H49.5608ZM47.6896 31.6123L47.6722 31.5968L47.6699 31.6008L47.6896 31.6123ZM54.9566 32.6848L54.9403 32.6689L54.9402 32.6689L54.9566 32.6848ZM53.6911 33.1868L53.6695 33.1794L53.6601 33.207L53.6891 33.2096L53.6911 33.1868ZM54.991 32.6495L54.9746 32.6336L54.9746 32.6336L54.991 32.6495ZM55.6079 30.8821L55.6283 30.8719L55.6247 30.8645L55.6171 30.8612L55.6079 30.8821ZM10.9207 29.0118C11.7293 29.2684 12.4251 29.2436 13.0172 29.012C13.609 28.7806 14.095 28.3434 14.4863 27.779C15.2682 26.6506 15.6739 25.0097 15.7881 23.4675L15.7426 23.4641C15.6286 25.0024 15.2242 26.6341 14.4487 27.753C14.0612 28.3121 13.5818 28.7422 13.0005 28.9695C12.4196 29.1967 11.7347 29.2222 10.9345 28.9683L10.9207 29.0118ZM9.92422 27.6927C10.1053 28.4486 10.4626 28.8664 10.9207 29.0118L10.9345 28.9683C10.497 28.8295 10.1475 28.4288 9.9686 27.682L9.92422 27.6927ZM13.8878 22.1432C11.976 22.6982 10.9154 23.7366 10.3677 24.8117C9.82048 25.886 9.78624 26.9952 9.92402 27.6918L9.9688 27.6829C9.83275 26.9951 9.86633 25.8966 10.4084 24.8325C10.95 23.7692 12.0002 22.7387 13.9005 22.187L13.8878 22.1432ZM18.3392 21.7666C16.8674 21.7337 15.4107 21.701 13.8878 22.1432L13.9005 22.187C15.4157 21.7471 16.8655 21.7794 18.3382 21.8123L18.3392 21.7666ZM22.2415 21.5494C20.8915 21.8236 19.6097 21.795 18.3392 21.7666L18.3382 21.8123C19.6081 21.8407 20.8949 21.8695 22.2506 21.5941L22.2415 21.5494ZM15.2848 35.0657C16.5514 31.5169 17.5379 28.7742 18.587 26.6048C19.6358 24.4359 20.7465 22.8416 22.2606 21.5893L22.2315 21.5542C20.7106 22.812 19.5964 24.4125 18.5459 26.5849C17.4955 28.757 16.5082 31.5023 15.2418 35.0503L15.2848 35.0657ZM10.939 40.6296C12.5633 39.6993 14.2141 37.7326 15.2845 35.0665L15.2421 35.0495C14.1744 37.7089 12.5294 39.6661 10.9163 40.59L10.939 40.6296ZM6.06753 38.2114C6.31957 39.5174 6.91656 40.2895 7.76392 40.6506C8.60948 41.011 9.69942 40.9599 10.9335 40.6319L10.9218 40.5878C9.69137 40.9148 8.61348 40.9631 7.78181 40.6086C6.95195 40.255 6.36233 39.4981 6.11234 38.2028L6.06753 38.2114ZM6.23269 36.5809C6.06696 37.1944 6.03898 37.8104 6.06717 38.2087L6.1127 38.2055C6.08482 37.8116 6.11251 37.2008 6.27675 36.5929L6.23269 36.5809ZM6.54935 36.1952C6.44177 36.3231 6.33545 36.4494 6.23689 36.5727L6.27254 36.6011C6.37067 36.4784 6.47661 36.3525 6.58427 36.2246L6.54935 36.1952ZM6.54885 36.1959L6.54883 36.1959L6.58479 36.224L6.58481 36.224L6.54885 36.1959ZM6.55071 36.1938L6.55069 36.1938L6.58297 36.226L6.58298 36.226L6.55071 36.1938ZM7.37231 34.1132C7.58774 34.4035 7.5387 34.7391 7.35491 35.0977C7.17099 35.4565 6.85541 35.8316 6.54938 36.1952L6.5843 36.2246C6.88931 35.8622 7.20875 35.4829 7.39553 35.1185C7.58244 34.7538 7.63979 34.3971 7.40897 34.086L7.37231 34.1132ZM5.31398 36.84C5.45991 35.253 5.83957 34.474 6.24811 34.1412C6.65382 33.8108 7.09391 33.9168 7.37742 34.1182L7.40386 34.081C7.10928 33.8717 6.64572 33.7586 6.21929 34.1059C5.79569 34.4509 5.4147 35.2463 5.26854 36.8358L5.31398 36.84ZM6.10911 40.2523C5.48246 39.2821 5.28257 37.9439 5.31407 36.8386L5.26845 36.8373C5.23682 37.9471 5.43708 39.296 6.07077 40.2771L6.10911 40.2523ZM13.6032 39.3558C10.5077 42.8838 7.13959 41.8477 6.10911 40.2523L6.07077 40.2771C7.12094 41.9029 10.5261 42.9319 13.6375 39.3859L13.6032 39.3558ZM15.7457 35.9736C14.977 37.2696 14.2103 38.462 13.6015 39.358L13.6392 39.3837C14.2486 38.4869 15.0158 37.2937 15.785 35.9969L15.7457 35.9736ZM18.03 30.0474C17.4715 31.4306 16.7656 33.1792 15.7439 35.9775L15.7868 35.9931C16.8082 33.1955 17.5139 31.4475 18.0723 30.0644L18.03 30.0474ZM18.03 30.0474L18.0299 30.0474L18.0723 30.0644L18.0723 30.0643L18.03 30.0474ZM18.0303 30.0466L18.0303 30.0466L18.072 30.0651L18.072 30.0651L18.0303 30.0466ZM18.0295 30.0486L18.0295 30.0486L18.0728 30.0631L18.0728 30.063L18.0295 30.0486ZM19.0983 27.2918C18.7776 28.1954 18.4446 29.0205 18.03 30.0473L18.0723 30.0644C18.4868 29.0377 18.8203 28.2118 19.1413 27.3071L19.0983 27.2918ZM21.9722 23.0322C21.887 23.0322 21.7901 23.0789 21.6863 23.1577C21.5819 23.2371 21.4672 23.3515 21.3458 23.4925C21.1029 23.7746 20.8306 24.1657 20.5563 24.603C20.0077 25.4776 19.4493 26.5396 19.0991 27.2898L19.1405 27.3091C19.49 26.5603 20.0475 25.5 20.595 24.6272C20.8688 24.1907 21.1396 23.8018 21.3804 23.5223C21.5008 23.3825 21.6131 23.2707 21.7139 23.1941C21.8155 23.1169 21.9023 23.0778 21.9722 23.0778V23.0322ZM20.5228 26.8269C20.9883 25.2953 21.5318 23.9477 21.9924 23.0656L21.952 23.0445C21.4897 23.9298 20.9452 25.2801 20.4792 26.8136L20.5228 26.8269ZM20.0345 30.5934C20.0967 29.5916 20.1644 28.5022 20.5233 26.825L20.4787 26.8154C20.1191 28.496 20.0512 29.5881 19.9889 30.5905L20.0345 30.5934ZM20.0345 30.592V30.592H19.9889V30.592H20.0345ZM19.5069 34.1056C19.9079 32.6315 19.9681 31.662 20.0345 30.5934L19.9889 30.5905C19.9226 31.6585 19.8626 32.6241 19.4629 34.0936L19.5069 34.1056ZM17.114 39.3936C17.394 39.3651 17.6608 39.1277 17.9075 38.7696C18.1552 38.4102 18.3869 37.9233 18.5951 37.3841C19.0116 36.3056 19.336 35.0137 19.5073 34.1038L19.4625 34.0954C19.2915 35.0034 18.9678 36.2924 18.5526 37.3677C18.3449 37.9054 18.1147 38.3886 17.87 38.7437C17.6243 39.1002 17.3679 39.3219 17.1094 39.3482L17.114 39.3936ZM20.2787 36.6208C19.4776 37.9581 18.6214 39.1047 17.997 39.6847C17.841 39.8297 17.7003 39.9384 17.5792 40.006C17.4572 40.0741 17.3593 40.098 17.2868 40.0804C17.2171 40.0635 17.1637 40.0059 17.1351 39.8905C17.1063 39.7747 17.104 39.6049 17.1343 39.3738L17.0891 39.3679C17.0585 39.601 17.06 39.7774 17.0908 39.9015C17.1217 40.0262 17.1837 40.1023 17.2761 40.1248C17.3657 40.1466 17.4767 40.1155 17.6014 40.0459C17.727 39.9758 17.8708 39.8643 18.0281 39.7181C18.6572 39.1338 19.516 37.9828 20.3179 36.6443L20.2787 36.6208ZM21.1322 34.8774C20.8476 35.4281 20.5501 36.0034 20.2774 36.6234L20.3192 36.6417C20.5912 36.0233 20.888 35.4492 21.1728 34.8984L21.1322 34.8774ZM21.1321 34.8777L21.1321 34.8777L21.1729 34.8981L21.1729 34.8981L21.1321 34.8777ZM21.1321 34.8776L21.1321 34.8777L21.1729 34.8981L21.173 34.898L21.1321 34.8776ZM22.2242 32.4272C21.9805 33.2364 21.5718 34.0272 21.1323 34.8773L21.1728 34.8983C21.6119 34.049 22.0228 33.2543 22.2679 32.4404L22.2242 32.4272ZM31.9583 20.7064C29.4243 21.7675 27.2744 23.943 25.6168 26.2289C23.959 28.5151 22.792 30.9141 22.2247 32.4258L22.2674 32.4418C22.8334 30.9337 23.9986 28.5383 25.6538 26.2557C27.3092 23.9728 29.4531 21.805 31.9759 20.7485L31.9583 20.7064ZM26.647 29.1784C27.4163 27.0661 28.4178 25.0964 29.3932 23.5853C29.8809 22.8297 30.3619 22.1892 30.8038 21.7029C31.2461 21.2161 31.6476 20.886 31.9759 20.7485L31.9583 20.7064C31.6204 20.8479 31.2135 21.1842 30.77 21.6722C30.326 22.1608 29.8435 22.8035 29.3549 23.5605C28.3776 25.0746 27.3746 27.0474 26.6041 29.1628L26.647 29.1784ZM28.2338 42.2024C26.3982 41.4012 25.6803 39.3827 25.5831 36.9394C25.4861 34.4973 26.0098 31.6401 26.6477 29.1763L26.6035 29.1649C25.9653 31.6301 25.4402 34.4925 25.5375 36.9412C25.6348 39.3885 26.3545 41.4319 28.2156 42.2442L28.2338 42.2024ZM32.2637 38.6407C32.3791 38.6407 32.4692 38.7032 32.5314 38.8167C32.5941 38.931 32.6275 39.0958 32.6264 39.294C32.6243 39.6901 32.4848 40.2121 32.1826 40.7099C31.8806 41.2075 31.4166 41.6799 30.7666 41.9781C30.1166 42.2762 29.2792 42.4009 28.229 42.2009L28.2204 42.2457C29.2788 42.4473 30.126 42.3221 30.7856 42.0195C31.445 41.717 31.9155 41.2379 32.2216 40.7336C32.5276 40.2297 32.6699 39.6997 32.6721 39.2943C32.6731 39.0918 32.6393 38.9184 32.5714 38.7947C32.5031 38.6702 32.3994 38.595 32.2637 38.595V38.6407ZM27.7736 40.6244C28.2318 41.1732 29.0101 41.7368 29.8524 41.6277C30.6966 41.5185 31.591 40.7357 32.2854 38.625L32.2421 38.6107C31.5491 40.7169 30.6635 41.4767 29.8465 41.5825C29.0275 41.6885 28.2632 41.1396 27.8087 40.5952L27.7736 40.6244ZM28.5957 28.9344C27.2515 32.5129 26.5698 36.657 27.7693 40.6164L27.813 40.6032C26.6174 36.6568 27.2963 32.5236 28.6384 28.9504L28.5957 28.9344ZM32.7817 21.2297C32.1208 21.8554 31.5491 22.3966 30.9052 23.4748C30.2617 24.5523 29.5463 26.1654 28.5955 28.935L28.6386 28.9498C29.5891 26.1812 30.3033 24.5716 30.9443 23.4982C31.585 22.4256 32.1528 21.8879 32.813 21.2628L32.7817 21.2297ZM32.7821 21.2293L32.7821 21.2293L32.8126 21.2632L32.8127 21.2632L32.7821 21.2293ZM32.7824 21.229L32.7824 21.2291L32.8124 21.2634L32.8124 21.2634L32.7824 21.229ZM32.7813 21.23L32.7813 21.2301L32.8136 21.2623L32.8136 21.2623L32.7813 21.23ZM32.7821 21.2293L32.782 21.2294L32.8129 21.263L32.813 21.2629L32.7821 21.2293ZM33.4569 20.5745C33.2188 20.8158 32.9957 21.027 32.7818 21.2295L32.8132 21.2627C33.027 21.0602 33.2507 20.8485 33.4894 20.6066L33.4569 20.5745ZM34.0893 19.6778C34.1589 19.6778 34.241 19.7298 34.3046 19.8148C34.3676 19.899 34.4083 20.0105 34.3986 20.1207C34.389 20.2299 34.3299 20.3405 34.188 20.4247C34.0452 20.5095 33.8179 20.5677 33.4732 20.5677V20.6134C33.8221 20.6134 34.0587 20.5546 34.2113 20.464C34.3649 20.3728 34.4331 20.2495 34.444 20.1247C34.4549 20.0011 34.4094 19.8787 34.3412 19.7875C34.2736 19.6971 34.1795 19.6321 34.0893 19.6321V19.6778ZM21.4001 32.4422C22.3122 30.1391 24.0328 26.8462 26.2524 24.1798C28.473 21.5122 31.1877 19.4777 34.0877 19.6777L34.0909 19.6322C31.1674 19.4306 28.4397 21.4808 26.2173 24.1506C23.994 26.8216 22.2711 30.1189 21.3577 32.4254L21.4001 32.4422ZM22.0795 27.9115C21.9323 29.3152 21.7764 30.8009 21.3568 32.4281L21.401 32.4395C21.8216 30.8086 21.9777 29.3198 22.1249 27.9163L22.0795 27.9115ZM23.9155 21.3313C22.5446 23.4732 22.324 25.5797 22.0795 27.9115L22.1249 27.9163C22.3695 25.5836 22.5896 23.4876 23.9539 21.3559L23.9155 21.3313ZM23.2201 20.7441C23.7084 20.2841 24.1757 20.0425 24.5562 19.9506C24.9381 19.8583 25.2279 19.9175 25.368 20.0508C25.4373 20.1168 25.4708 20.2015 25.4619 20.2981C25.4529 20.3956 25.4004 20.5074 25.2927 20.6254C25.0772 20.8616 24.6454 21.1168 23.9284 21.3216L23.9409 21.3655C24.6615 21.1596 25.1026 20.9014 25.3264 20.6562C25.4384 20.5335 25.4971 20.4127 25.5073 20.3024C25.5176 20.1913 25.4785 20.093 25.3994 20.0178C25.2429 19.8687 24.9336 19.8124 24.5454 19.9062C24.1558 20.0004 23.6817 20.2466 23.1888 20.7108L23.2201 20.7441ZM17.8906 21.1889C19.4013 21.2088 21.0032 21.2299 23.2093 20.7497L23.1996 20.7051C20.9989 21.1841 19.4013 21.1631 17.8912 21.1433L17.8906 21.1889ZM14.377 21.3661C15.6465 21.1594 16.7417 21.1738 17.8906 21.1889L17.8912 21.1433C16.7425 21.1282 15.6436 21.1137 14.3697 21.321L14.377 21.3661ZM10.9413 22.8206C11.707 22.2467 12.8046 21.7453 14.3787 21.3658L14.368 21.3214C12.79 21.7019 11.686 22.2053 10.914 22.7841L10.9413 22.8206ZM9.17055 27.2994C9.17055 25.7989 9.44344 24.275 10.9435 22.8187L10.9117 22.786C9.39969 24.2539 9.12491 25.7917 9.12491 27.2994H9.17055ZM14.727 28.9703C13.5899 29.6289 12.2025 29.9118 11.0989 29.6791C10.5475 29.5628 10.068 29.318 9.72523 28.9281C9.38267 28.5384 9.17509 28.002 9.17055 27.2993L9.12492 27.2996C9.12951 28.0116 9.34009 28.5591 9.69095 28.9582C10.0416 29.3571 10.5308 29.6059 11.0895 29.7237C12.2063 29.9593 13.6052 29.6728 14.7499 29.0098L14.727 28.9703ZM15.7653 23.4886C15.8435 23.4886 15.9268 23.5396 16.0085 23.6415C16.0898 23.7429 16.1665 23.891 16.2316 24.0763C16.3617 24.4466 16.4442 24.9608 16.4271 25.5333C16.393 26.6784 15.9613 28.0519 14.7249 28.9717L14.7521 29.0084C16.0029 28.0778 16.4384 26.6892 16.4727 25.5347C16.4899 24.9575 16.4069 24.4375 16.2746 24.0612C16.2085 23.8731 16.1298 23.7198 16.0441 23.613C15.959 23.5068 15.864 23.443 15.7653 23.443V23.4886ZM29.6614 33.3757C30.2991 31.1665 31.3845 30.1828 32.3689 29.9458C33.3541 29.7087 34.2429 30.2171 34.5012 31.0033L34.5445 30.989C34.278 30.1779 33.364 29.6594 32.3582 29.9015C31.3517 30.1437 30.2578 31.1453 29.6176 33.3631L29.6614 33.3757ZM33.1796 35.0465C32.4956 36.223 31.8909 36.8495 31.3817 37.0943C31.1277 37.2164 30.8981 37.2433 30.694 37.197C30.4898 37.1507 30.3087 37.0306 30.1527 36.8547C29.8403 36.5024 29.6317 35.929 29.5443 35.2936C29.4569 34.6588 29.4912 33.9655 29.6614 33.3757L29.6176 33.3631C29.4453 33.9598 29.411 34.6596 29.4991 35.2999C29.587 35.9396 29.7977 36.5231 30.1186 36.885C30.2793 37.0662 30.4683 37.1926 30.684 37.2415C30.8998 37.2904 31.1398 37.2612 31.4014 37.1354C31.9234 36.8845 32.5339 36.248 33.2191 35.0695L33.1796 35.0465ZM37.6282 33.3602C36.967 34.8605 36.3379 35.8396 35.7724 36.4337C35.2067 37.028 34.7076 37.2341 34.3054 37.1963C33.9037 37.1585 33.5907 36.8766 33.3985 36.4761C33.2064 36.0756 33.137 35.5596 33.2218 35.0618L33.1768 35.0542C33.0905 35.5605 33.1609 36.0861 33.3574 36.4958C33.5539 36.9054 33.8784 37.2019 34.3011 37.2417C34.7232 37.2815 35.2353 37.0643 35.8055 36.4652C36.376 35.8658 37.0077 34.8813 37.67 33.3786L37.6282 33.3602ZM38.6397 31.5939C38.6168 31.6106 38.5884 31.6413 38.5565 31.6814C38.5242 31.7219 38.487 31.7737 38.4464 31.8342C38.365 31.9551 38.2692 32.1117 38.1703 32.2843C37.9726 32.6294 37.7617 33.04 37.628 33.3606L37.6702 33.3782C37.8028 33.0599 38.0128 32.6511 38.2099 32.307C38.3085 32.135 38.4037 31.9794 38.4842 31.8597C38.5245 31.7998 38.561 31.749 38.5922 31.7098C38.6239 31.67 38.649 31.6436 38.6666 31.6307L38.6397 31.5939ZM38.2443 33.263C38.4631 32.7238 38.6549 32.2509 38.75 31.9435C38.7738 31.8666 38.7917 31.7995 38.8024 31.744C38.8131 31.6891 38.8172 31.6433 38.8116 31.6101C38.8089 31.5933 38.8033 31.5775 38.7928 31.5654C38.7817 31.5526 38.7667 31.546 38.7498 31.5455C38.7337 31.5449 38.7166 31.5497 38.699 31.5578C38.6812 31.5659 38.6614 31.578 38.6397 31.5939L38.6666 31.6307C38.6869 31.616 38.7039 31.6057 38.7179 31.5993C38.7322 31.5928 38.742 31.5909 38.7482 31.5911C38.7535 31.5913 38.7562 31.5929 38.7584 31.5954C38.7612 31.5986 38.7646 31.6052 38.7666 31.6175C38.7707 31.6424 38.768 31.6815 38.7576 31.7353C38.7473 31.7885 38.73 31.8539 38.7064 31.93C38.6121 32.2351 38.4212 32.7057 38.202 33.2459L38.2443 33.263ZM37.403 37.2948C37.3151 37.2757 37.252 37.2265 37.209 37.151C37.1656 37.0747 37.1423 36.9705 37.1374 36.842C37.1276 36.5849 37.1913 36.2384 37.3001 35.8437C37.5174 35.0547 37.9122 34.0817 38.2443 33.263L38.202 33.2459C37.8702 34.0638 37.4743 35.0395 37.2561 35.8315C37.147 36.2273 37.0817 36.5793 37.0918 36.8437C37.0969 36.976 37.1208 37.0883 37.1694 37.1736C37.2184 37.2597 37.2921 37.3173 37.3932 37.3394L37.403 37.2948ZM39.0872 35.5934C38.9642 35.9204 38.8497 36.225 38.7335 36.4897C38.6173 36.7546 38.5001 36.9781 38.3723 37.1432C38.2445 37.3083 38.1078 37.4129 37.9532 37.4441C37.7989 37.4753 37.6217 37.4345 37.4105 37.298L37.3857 37.3363C37.603 37.4767 37.7923 37.5232 37.9623 37.4889C38.1319 37.4546 38.2771 37.3407 38.4084 37.1711C38.5396 37.0016 38.6586 36.774 38.7753 36.5081C38.8921 36.242 39.0071 35.9362 39.1299 35.6095L39.0872 35.5934ZM40.6211 32.6243C39.8762 33.4951 39.4463 34.6387 39.0872 35.5934L39.1299 35.6095C39.4895 34.6534 39.9169 33.5176 40.6558 32.654L40.6211 32.6243ZM42.2571 32.0769C42.3873 31.7411 42.4753 31.477 42.5276 31.2748C42.5797 31.0733 42.5971 30.9305 42.5836 30.8384C42.5769 30.7922 42.5619 30.7557 42.5367 30.7318C42.5108 30.7072 42.4772 30.6988 42.4403 30.7022C42.404 30.7056 42.3633 30.7204 42.3196 30.7435C42.2757 30.7668 42.2274 30.7991 42.1757 30.8389C41.9693 30.9977 41.701 31.2813 41.4245 31.6059C41.1478 31.9309 40.8618 32.2982 40.6201 32.6256L40.6568 32.6527C40.8981 32.3259 41.1834 31.9595 41.4593 31.6355C41.7355 31.3111 42.0012 31.0307 42.2035 30.8751C42.254 30.8362 42.3 30.8055 42.3409 30.7839C42.3821 30.7621 42.4167 30.7502 42.4445 30.7476C42.4717 30.7451 42.4911 30.7514 42.5053 30.7649C42.5202 30.779 42.5325 30.804 42.5385 30.845C42.5505 30.9274 42.5353 31.0627 42.4835 31.2633C42.4318 31.4632 42.3444 31.7254 42.2145 32.0604L42.2571 32.0769ZM41.7184 37.1717C41.3911 37.0592 41.183 36.8144 41.0739 36.4762C40.9645 36.1371 40.955 35.7049 41.0263 35.2216C41.169 34.2553 41.6341 33.0923 42.2553 32.0806L42.2164 32.0567C41.5929 33.0721 41.125 34.241 40.9812 35.215C40.9093 35.7018 40.9181 36.1419 41.0305 36.4902C41.1431 36.8394 41.3603 37.0969 41.7035 37.2149L41.7184 37.1717ZM43.3395 36.98C42.7107 37.4965 42.0977 37.3021 41.7184 37.1717L41.7035 37.2149C42.0842 37.3457 42.7193 37.5485 43.3684 37.0153L43.3395 36.98ZM44.9079 34.7286C44.3799 35.8212 43.6407 36.6862 43.338 36.9813L43.3699 37.014C43.6757 36.7158 44.4183 35.8465 44.949 34.7485L44.9079 34.7286ZM47.6752 36.5236C47.1431 36.9557 46.71 37.1392 46.3604 37.1546C46.0122 37.1699 45.7431 37.0186 45.537 36.7719C45.3303 36.5246 45.1875 36.1817 45.0945 35.8168C45.0016 35.4522 44.9589 35.0675 44.9513 34.738L44.9057 34.7391C44.9133 35.0714 44.9564 35.4596 45.0503 35.8281C45.1441 36.1963 45.2892 36.5465 45.502 36.8012C45.7154 37.0566 45.9974 37.2162 46.3624 37.2002C46.726 37.1842 47.1683 36.994 47.704 36.559L47.6752 36.5236ZM41.1558 45.3939C42.1396 45.7387 43.0089 45.5762 43.7666 45.0834C44.5232 44.5914 45.1678 43.7705 45.7061 42.7991C46.7826 40.8562 47.4381 38.3033 47.7122 36.5448L47.6671 36.5378C47.3935 38.2934 46.7391 40.8406 45.6661 42.777C45.1296 43.7453 44.4895 44.5589 43.7417 45.0452C42.995 45.5308 42.1404 45.6906 41.1708 45.3508L41.1558 45.3939ZM40.2756 41.2094C39.7073 42.3917 39.733 43.3357 39.9987 44.0358C40.2641 44.7351 40.7679 45.1886 41.1526 45.3925L41.174 45.3522C40.798 45.1529 40.3024 44.7074 40.0414 44.0196C39.7807 43.3327 39.7532 42.4017 40.3167 41.2291L40.2756 41.2094ZM39.1765 40.8623C39.4095 40.2542 39.6839 39.8996 39.9399 39.7267C40.1952 39.5543 40.4307 39.563 40.594 39.6776C40.7582 39.793 40.8554 40.02 40.8237 40.2964C40.792 40.5724 40.6315 40.8969 40.2812 41.202L40.3111 41.2364C40.6682 40.9254 40.8358 40.5911 40.869 40.3016C40.9022 40.0125 40.8011 39.7674 40.6202 39.6403C40.4383 39.5125 40.1818 39.5083 39.9144 39.6889C39.6476 39.869 39.3687 40.2332 39.1339 40.846L39.1765 40.8623ZM47.8735 41.2116C46.5179 45.0505 43.9644 46.4944 41.9451 46.2169C40.9351 46.0781 40.0563 45.5088 39.5233 44.59C38.9902 43.6712 38.8019 42.4011 39.1774 40.8595L39.133 40.8487C38.7554 42.3992 38.9437 43.682 39.4838 44.6129C40.024 45.544 40.9152 46.1214 41.9389 46.2621C43.9871 46.5436 46.5566 45.0781 47.9165 41.2268L47.8735 41.2116ZM50.0178 33.9245C49.2878 36.9914 48.5501 39.2954 47.8735 41.2116L47.9165 41.2268C48.5936 39.3094 49.3318 37.0039 50.0622 33.9351L50.0178 33.9245ZM52.3565 29.9037C51.9648 30.1223 51.5648 30.6393 51.1714 31.3424C50.7775 32.0467 50.388 32.9419 50.0187 33.9218L50.0614 33.9379C50.4303 32.959 50.8189 32.0662 51.2113 31.3647C51.6043 30.6621 51.9991 30.1554 52.3787 29.9436L52.3565 29.9037ZM50.0571 31.1939C50.4108 30.7945 50.9502 30.2177 51.421 29.873C51.5385 29.787 51.6513 29.7157 51.7554 29.6654C51.8597 29.615 51.954 29.5862 52.0348 29.5836C52.1149 29.5809 52.1814 29.6038 52.2331 29.6568C52.2854 29.7104 52.3249 29.7973 52.3451 29.9272L52.3902 29.9202C52.3692 29.7853 52.3273 29.6879 52.2658 29.6249C52.2036 29.5612 52.1239 29.535 52.0333 29.538C51.9435 29.5409 51.8427 29.5725 51.7355 29.6243C51.6281 29.6763 51.5129 29.7492 51.394 29.8362C50.9189 30.1841 50.3766 30.7643 50.0229 31.1636L50.0571 31.1939ZM45.2016 33.0099C45.4738 31.9326 46.4163 30.7796 47.4236 30.2462C47.927 29.9796 48.4435 29.8693 48.899 29.997C49.3534 30.1243 49.7524 30.49 50.0187 31.1869L50.0613 31.1706C49.7914 30.4641 49.3832 30.0853 48.9113 29.953C48.4404 29.8211 47.9115 29.9362 47.4023 30.2058C46.3844 30.7449 45.4329 31.9081 45.1574 32.9987L45.2016 33.0099ZM42.6925 35.0541C42.6316 35.4065 42.5951 35.77 42.6152 36.0385C42.6253 36.1722 42.6496 36.2854 42.6942 36.3618C42.7167 36.4003 42.7451 36.4306 42.7803 36.4489C42.8159 36.4672 42.8566 36.4724 42.9018 36.4639C42.9906 36.4471 43.0984 36.3772 43.2285 36.2475C43.3593 36.117 43.5155 35.9234 43.7008 35.6539C44.0715 35.1149 44.5607 34.27 45.1998 33.0146L45.1592 32.9939C44.5204 34.2486 44.0322 35.0915 43.6632 35.628C43.4786 35.8964 43.3243 36.0875 43.1963 36.2151C43.0676 36.3435 42.968 36.4049 42.8933 36.419C42.8568 36.4259 42.8266 36.4214 42.8013 36.4083C42.7757 36.3951 42.7531 36.3721 42.7336 36.3388C42.6944 36.2715 42.6707 36.1669 42.6608 36.035C42.641 35.7722 42.6768 35.4131 42.7375 35.0619L42.6925 35.0541ZM43.4192 33.5769C43.2132 33.989 42.9715 34.4727 42.6945 35.0481L42.7356 35.0679C43.0124 34.4929 43.2541 34.0094 43.46 33.5973L43.4192 33.5769ZM43.7699 30.2805C44.178 30.7739 44.3427 31.0827 44.2836 31.5218C44.2537 31.7432 44.1668 31.999 44.0223 32.3291C43.8778 32.6591 43.6766 33.0617 43.4192 33.5769L43.46 33.5973C43.7172 33.0825 43.9191 32.6787 44.0641 32.3474C44.2091 32.0162 44.2981 31.7558 44.3288 31.5279C44.3907 31.0687 44.2147 30.7468 43.8051 30.2514L43.7699 30.2805ZM40.837 31.4957C41.3097 30.9534 41.7472 30.452 42.2161 30.1854C42.4499 30.0525 42.6906 29.9786 42.9465 29.9868C43.2025 29.9951 43.4758 30.0856 43.7749 30.2849L43.8002 30.247C43.4956 30.0439 43.2142 29.9498 42.948 29.9412C42.6818 29.9326 42.4329 30.0097 42.1936 30.1457C41.7164 30.417 41.2736 30.9255 40.8026 31.4657L40.837 31.4957ZM40.8372 31.4955L40.8372 31.4954L40.8023 31.466L40.8023 31.4661L40.8372 31.4955ZM40.3129 32.0842C40.4938 31.8894 40.6675 31.6901 40.8369 31.4958L40.8025 31.4658C40.6331 31.6602 40.4598 31.8589 40.2794 32.0531L40.3129 32.0842ZM38.303 31.0134C38.6179 30.7396 39.1442 30.5727 39.5737 30.6889C39.7875 30.7467 39.9774 30.8747 40.1065 31.0951C40.2358 31.3161 40.3051 31.6319 40.2734 32.067L40.3189 32.0703C40.3511 31.6292 40.2812 31.3034 40.1459 31.0721C40.0102 30.8404 39.8099 30.7055 39.5856 30.6448C39.1388 30.524 38.5972 30.6971 38.2731 30.9789L38.303 31.0134ZM37.5455 32.3787C37.703 32.0375 37.8394 31.742 37.9634 31.5082C38.0879 31.2737 38.1983 31.1044 38.303 31.0134L38.2731 30.9789C38.1613 31.0761 38.0475 31.2523 37.9231 31.4868C37.7984 31.7219 37.6614 32.0188 37.5041 32.3596L37.5455 32.3787ZM35.4996 35.9989C36.4799 34.6878 37.0971 33.3503 37.5455 32.3787L37.5041 32.3596C37.0556 33.3312 36.4401 34.6647 35.463 35.9716L35.4996 35.9989ZM36.2604 31.4408C35.5748 32.5835 34.936 34.128 34.6878 35.183C34.6257 35.4469 34.5879 35.681 34.58 35.8709C34.5722 36.0597 34.5938 36.2096 34.6552 36.301C34.6866 36.3476 34.7285 36.3793 34.7814 36.3923C34.8338 36.4052 34.8947 36.3993 34.9637 36.3755C35.1011 36.328 35.2772 36.207 35.4968 36.002L35.4657 35.9686C35.2472 36.1726 35.0769 36.2881 34.9488 36.3323C34.8851 36.3544 34.8335 36.3581 34.7923 36.348C34.7517 36.338 34.7189 36.3139 34.6931 36.2755C34.6403 36.197 34.6179 36.06 34.6256 35.8728C34.6333 35.6868 34.6705 35.4559 34.7322 35.1935C34.9792 34.1436 35.616 32.6035 36.2995 31.4643L36.2604 31.4408ZM34.5455 30.9988C34.5787 30.7166 34.7595 30.491 35.0008 30.3391C35.2422 30.1872 35.5419 30.1107 35.8074 30.1261C36.0732 30.1416 36.3002 30.2484 36.4047 30.4576C36.5095 30.6673 36.4956 30.9883 36.2597 31.442L36.3002 31.4631C36.5389 31.004 36.5599 30.6661 36.4456 30.4372C36.331 30.2079 36.085 30.0965 35.8101 30.0806C35.5348 30.0646 35.2257 30.1436 34.9765 30.3005C34.7272 30.4574 34.5355 30.6938 34.5002 30.9935L34.5455 30.9988ZM55.9833 30.2394C56.2257 30.3991 56.3474 30.6995 56.353 31.0643C56.3586 31.4288 56.2481 31.8538 56.0306 32.2558C55.5956 33.0595 54.7357 33.766 53.5324 33.7117L53.5304 33.7573C54.7551 33.8125 55.6294 33.0928 56.0707 32.2775C56.2913 31.8699 56.4044 31.4372 56.3986 31.0636C56.3929 30.6904 56.2681 30.3724 56.0084 30.2013L55.9833 30.2394ZM51.8419 33.7407C52.4527 31.589 53.2736 30.5617 54.0465 30.148C54.8183 29.7348 55.5472 29.9311 55.9827 30.2389L56.0091 30.2017C55.5622 29.8858 54.8147 29.685 54.0249 30.1078C53.2361 30.53 52.4102 31.5716 51.798 33.7283L51.8419 33.7407ZM56.114 35.6383C55.4651 36.5776 54.8353 37.0896 54.2672 37.291C53.7002 37.4919 53.1926 37.3843 52.7834 37.0792C52.3734 36.7735 52.0612 36.2684 51.89 35.6739C51.7188 35.0796 51.689 34.3975 51.8422 33.7397L51.7977 33.7293C51.6428 34.395 51.6729 35.0849 51.8461 35.6865C52.0193 36.2879 52.3361 36.8026 52.7562 37.1158C53.177 37.4296 53.7006 37.5402 54.2824 37.334C54.8631 37.1282 55.4998 36.6077 56.1516 35.6643L56.114 35.6383ZM58.3711 30.8913C58.3709 30.891 58.3713 30.8918 58.3716 30.8943C58.3718 30.8968 58.3719 30.9002 58.3717 30.9047C58.3713 30.9138 58.3696 30.926 58.3665 30.9414C58.3603 30.9721 58.3489 31.0134 58.3325 31.0645C58.2997 31.1665 58.2477 31.3055 58.1801 31.473C58.0451 31.8079 57.8483 32.2552 57.6199 32.7453C57.1631 33.7257 56.5805 34.876 56.1133 35.6394L56.1523 35.6632C56.6207 34.8977 57.2042 33.7456 57.6613 32.7646C57.8898 32.2741 58.087 31.826 58.2225 31.4901C58.2902 31.3222 58.3426 31.182 58.3759 31.0784C58.3925 31.0267 58.4045 30.9836 58.4112 30.9504C58.4146 30.9339 58.4167 30.9193 58.4173 30.907C58.4179 30.8955 58.4173 30.883 58.4128 30.8728L58.3711 30.8913ZM58.801 32.4879C59.0036 31.9816 58.9817 31.6044 58.8687 31.3381C58.756 31.0724 58.5538 30.9199 58.4001 30.8608L58.3837 30.9034C58.5267 30.9584 58.7192 31.1025 58.8267 31.3559C58.934 31.6088 58.9577 31.9732 58.7587 32.4709L58.801 32.4879ZM58.902 37.4555C58.3924 37.263 58.0678 36.9894 57.882 36.656C57.6961 36.3224 57.6476 35.9261 57.6958 35.4855C57.7923 34.6031 58.2751 33.5514 58.8003 32.4895L58.7594 32.4693C58.2349 33.5297 57.7479 34.5887 57.6504 35.4805C57.6016 35.927 57.6501 36.3337 57.8421 36.6782C58.0343 37.0231 58.3686 37.3028 58.8859 37.4982L58.902 37.4555ZM59.0368 37.4365C58.9875 37.4407 58.9386 37.445 58.8896 37.4545L58.8983 37.4993C58.9445 37.4903 58.991 37.4862 59.0407 37.482L59.0368 37.4365ZM62.5474 32.4694C61.3476 34.9102 60.5864 36.1427 60.0659 36.77C59.8058 37.0834 59.6069 37.2445 59.4446 37.33C59.283 37.4151 59.1563 37.4261 59.0368 37.4365L59.0407 37.482C59.1613 37.4715 59.2958 37.46 59.4659 37.3703C59.6354 37.281 59.8388 37.1151 60.101 36.7991C60.6252 36.1674 61.3884 34.9307 62.5883 32.4895L62.5474 32.4694ZM62.1262 32.2867C62.1897 32.1914 62.2478 32.1399 62.2972 32.1185C62.3451 32.0978 62.3861 32.1047 62.4211 32.13C62.4573 32.1562 62.4886 32.2035 62.5107 32.2657C62.5327 32.3274 62.545 32.4018 62.545 32.4794H62.5907C62.5907 32.3973 62.5777 32.3176 62.5537 32.2503C62.5299 32.1834 62.4944 32.1266 62.4478 32.093C62.3999 32.0583 62.3419 32.0495 62.2791 32.0766C62.218 32.103 62.1539 32.1628 62.0882 32.2614L62.1262 32.2867ZM61.2881 33.9388C61.6306 33.143 61.9117 32.6088 62.1262 32.2867L62.0882 32.2614C61.8715 32.5868 61.5891 33.1239 61.2462 33.9208L61.2881 33.9388ZM59.4202 35.3238C59.2927 35.6629 59.175 36.0191 59.1122 36.2943C59.0809 36.4316 59.0629 36.5504 59.0649 36.6373C59.0658 36.6805 59.0718 36.7181 59.085 36.7465C59.0987 36.7758 59.1212 36.7968 59.1537 36.8015C59.1841 36.8059 59.2189 36.7952 59.2568 36.7737C59.2953 36.7519 59.34 36.7173 59.3914 36.6692C59.4945 36.5729 59.6276 36.4197 59.7963 36.1982C60.1337 35.755 60.6156 35.0353 61.2866 33.9418L61.2477 33.9179C60.5769 35.011 60.096 35.7292 59.76 36.1706C59.5919 36.3913 59.4606 36.5421 59.3603 36.6359C59.3101 36.6827 59.2684 36.7147 59.2343 36.734C59.1998 36.7536 59.1759 36.7586 59.1602 36.7563C59.1465 36.7543 59.1353 36.7462 59.1264 36.7271C59.117 36.7071 59.1114 36.677 59.1105 36.6362C59.1087 36.5551 59.1256 36.4408 59.1567 36.3044C59.2188 36.0322 59.3357 35.6782 59.463 35.3399L59.4202 35.3238ZM59.8993 34.1437C59.7423 34.4983 59.5671 34.8936 59.42 35.3245L59.4632 35.3392C59.6096 34.9105 59.7839 34.517 59.9411 34.1622L59.8993 34.1437ZM59.8993 34.1438L59.8993 34.1439L59.9411 34.162L59.9412 34.1619L59.8993 34.1438ZM59.8996 34.1431L59.8996 34.1431L59.9409 34.1625L59.9409 34.1625L59.8996 34.1431ZM59.8985 34.146L59.8985 34.1461L59.9421 34.1595L59.9421 34.1595L59.8985 34.146ZM60.3053 33.0681C60.2439 33.3655 60.0847 33.7253 59.8994 34.1435L59.9411 34.162C60.1256 33.7455 60.2874 33.3806 60.35 33.0773L60.3053 33.0681ZM59.5728 31.1648C59.7996 31.3127 60.0461 31.4739 60.2048 31.7542C60.3631 32.0338 60.4358 32.4357 60.3053 33.0681L60.35 33.0773C60.4819 32.4379 60.4099 32.0239 60.2445 31.7317C60.0796 31.4404 59.8237 31.2739 59.5977 31.1266L59.5728 31.1648ZM59.2198 30.8979C59.3146 30.9966 59.4409 31.0789 59.5728 31.1648L59.5977 31.1266C59.4647 31.0399 59.3432 30.9605 59.2527 30.8663L59.2198 30.8979ZM58.8735 30.347C58.8273 30.4395 58.856 30.6621 59.2238 30.9012L59.2487 30.8629C58.8863 30.6274 58.8845 30.427 58.9143 30.3674L58.8735 30.347ZM58.9978 29.7742C58.947 29.8643 58.8924 29.961 58.8622 30.0599C58.8318 30.1595 58.8255 30.2633 58.8732 30.3668L58.9147 30.3477C58.873 30.2574 58.8775 30.1659 58.9058 30.0732C58.9343 29.9799 58.9863 29.8876 59.0376 29.7966L58.9978 29.7742ZM59.1192 29.5082C59.1023 29.5884 59.0527 29.6769 58.9978 29.7742L59.0376 29.7966C59.0913 29.7013 59.1452 29.6062 59.1638 29.5176L59.1192 29.5082ZM57.9547 30.5731C57.3452 29.6226 57.7824 28.6975 58.3002 28.3407C58.5601 28.1617 58.8306 28.1311 59.0018 28.2952C59.0884 28.3782 59.1531 28.5136 59.1784 28.7131C59.2038 28.9126 59.1894 29.1746 59.1192 29.5082L59.1638 29.5176C59.2347 29.1809 59.2499 28.9136 59.2237 28.7074C59.1976 28.5013 59.1298 28.3547 59.0334 28.2622C58.8384 28.0753 58.5408 28.1196 58.2743 28.3032C57.7394 28.6717 57.2915 29.6234 57.9163 30.5977L57.9547 30.5731ZM57.2489 32.1693L57.9563 30.5948L57.9147 30.5761L57.2073 32.1506L57.2489 32.1693ZM53.5092 33.729C53.2352 34.8423 53.1898 35.6385 53.3135 36.1223C53.3755 36.3644 53.4806 36.5316 53.6242 36.6192C53.7684 36.7071 53.9463 36.7119 54.1467 36.6398C54.5458 36.4961 55.0448 36.044 55.5812 35.2977C56.1184 34.5504 56.6954 33.5048 57.2492 32.1687L57.207 32.1512C56.6542 33.485 56.0788 34.5273 55.5441 35.2711C55.0087 36.016 54.5166 36.4581 54.1312 36.5968C53.9394 36.6659 53.7768 36.6589 53.648 36.5802C53.5185 36.5012 53.4181 36.347 53.3577 36.111C53.2369 35.6385 53.2799 34.8516 53.5536 33.7399L53.5092 33.729ZM34.0192 32.0313C34.1416 31.7166 34.0996 31.3773 33.9434 31.1327C33.7867 30.8873 33.5146 30.737 33.1806 30.8039C32.8482 30.8705 32.4594 31.1512 32.0631 31.7552C31.6666 32.3597 31.2608 33.2907 30.8953 34.6642L30.9394 34.6759C31.3042 33.3052 31.7084 32.3792 32.1013 31.7802C32.4945 31.1809 32.8744 30.9118 33.1895 30.8486C33.5029 30.7859 33.7571 30.9258 33.9049 31.1572C34.0532 31.3894 34.0939 31.7134 33.9767 32.0148L34.0192 32.0313ZM30.8947 34.6676C30.8398 35.168 30.8302 35.5457 30.8579 35.8179C30.8855 36.0884 30.9504 36.2607 31.0509 36.3427C31.1549 36.4274 31.288 36.4097 31.4326 36.3251C31.5775 36.2404 31.741 36.0849 31.9148 35.8788C32.61 35.054 33.4908 33.3901 34.0192 32.0313L33.9767 32.0148C33.4491 33.3714 32.5705 35.0301 31.8799 35.8494C31.7072 36.0543 31.5477 36.205 31.4096 36.2858C31.2713 36.3667 31.1616 36.374 31.0798 36.3073C30.9945 36.2378 30.9307 36.0824 30.9033 35.8133C30.8761 35.5457 30.8854 35.1716 30.94 34.6726L30.8947 34.6676ZM48.6019 34.0813C48.615 34.0157 48.663 33.8931 48.734 33.7349C48.8046 33.5776 48.8969 33.3876 48.997 33.1885C49.1973 32.7904 49.4288 32.3571 49.5808 32.0796L49.5408 32.0577C49.3886 32.3355 49.1568 32.7693 48.9562 33.168C48.8559 33.3673 48.7634 33.5581 48.6924 33.7162C48.6218 33.8735 48.5715 34.0009 48.5572 34.0723L48.6019 34.0813ZM47.6699 31.6008C47.1099 32.5665 46.7368 33.4897 46.5295 34.2602C46.3224 35.0294 46.2796 35.65 46.3841 36.0085C46.4364 36.1879 46.5276 36.3078 46.6598 36.3416C46.7908 36.375 46.9523 36.3209 47.1387 36.1775C47.5124 35.89 48.0063 35.2286 48.5998 34.0873L48.5593 34.0662C47.9662 35.2069 47.4761 35.8604 47.1109 36.1413C46.928 36.282 46.7814 36.3255 46.6711 36.2973C46.5618 36.2695 46.4783 36.1686 46.4279 35.9958C46.3271 35.6498 46.367 35.0395 46.5735 34.272C46.7798 33.5058 47.1512 32.5863 47.7093 31.6237L47.6699 31.6008ZM49.5836 32.0687C49.5836 31.6444 49.5221 31.3375 49.4137 31.1323C49.3047 30.9259 49.1478 30.8221 48.9607 30.8072C48.7755 30.7925 48.5644 30.8654 48.3453 31.0029C48.1258 31.1408 47.896 31.345 47.6725 31.5971L47.7067 31.6274C47.9282 31.3775 48.1548 31.1765 48.3696 31.0416C48.5848 30.9065 48.7858 30.8391 48.9571 30.8527C49.1266 30.8662 49.2706 30.9591 49.3734 31.1536C49.4768 31.3494 49.538 31.6477 49.538 32.0687H49.5836ZM54.9402 32.6689C54.5301 33.0909 54.0178 33.1929 53.6931 33.1641L53.6891 33.2096C54.0255 33.2394 54.552 33.1338 54.973 32.7007L54.9402 32.6689ZM54.9746 32.6336L54.9403 32.6689L54.9729 32.7007L55.0073 32.6654L54.9746 32.6336ZM55.5875 30.8923C55.7709 31.2591 55.7063 31.6033 55.5512 31.9022C55.3955 32.202 55.1499 32.4539 54.9746 32.6336L55.0073 32.6655C55.182 32.4864 55.4325 32.2299 55.5917 31.9233C55.7513 31.6157 55.8202 31.2556 55.6283 30.8719L55.5875 30.8923ZM53.7127 33.1942C54.0863 32.1006 54.4822 31.4923 54.8231 31.1755C55.1642 30.8584 55.4467 30.8358 55.5987 30.9029L55.6171 30.8612C55.442 30.7838 55.1404 30.8182 54.792 31.142C54.4434 31.4661 54.0443 32.0824 53.6695 33.1794L53.7127 33.1942ZM21.3574 32.4263L20.8325 33.9323L20.8756 33.9474L21.4005 32.4413L21.3574 32.4263ZM54.973 32.7007L55.0073 32.6654L54.9746 32.6336L54.9403 32.6689L54.973 32.7007ZM49.5408 32.0577C49.3886 32.3355 49.1568 32.7693 48.9563 33.168C48.856 33.3673 48.7634 33.5581 48.6924 33.7162C48.6218 33.8735 48.5715 34.0009 48.5572 34.0723L48.602 34.0813C48.6151 34.0157 48.6631 33.8931 48.734 33.7349C48.8046 33.5776 48.8969 33.3876 48.997 33.1885C49.1973 32.7904 49.4288 32.3571 49.5808 32.0796L49.5408 32.0577Z" fill="black"/>
</svg>
